<mxfile host="app.diagrams.net" modified="2021-11-13T05:38:07.269Z" agent="5.0 (Windows NT 10.0; Win64; x64) AppleWebKit/537.36 (KHTML, like Gecko) Chrome/95.0.4638.69 Safari/537.36" etag="iWJxm50pwwe_yM3cBsq1" version="15.7.3" type="github" pages="5">
  <diagram id="S2I0wlSMrX725rbz-DaV" name="Use case">
    <mxGraphModel dx="1422" dy="762" grid="1" gridSize="10" guides="1" tooltips="1" connect="1" arrows="1" fold="1" page="1" pageScale="1" pageWidth="827" pageHeight="1169" math="0" shadow="0">
      <root>
        <mxCell id="0" />
        <mxCell id="1" parent="0" />
        <mxCell id="C7ps7MXUUIanhTUX-3WN-1" value="" style="shape=partialRectangle;whiteSpace=wrap;html=1;bottom=0;right=0;fillColor=none;fontSize=17;align=left;rotation=45;" parent="1" vertex="1">
          <mxGeometry x="531.5" y="565" width="20" height="20" as="geometry" />
        </mxCell>
        <mxCell id="UnctlhhIIt_SyHVeLb5L-2" value="" style="rounded=0;whiteSpace=wrap;html=1;fontSize=17;" parent="1" vertex="1">
          <mxGeometry x="160" y="80" width="760" height="710" as="geometry" />
        </mxCell>
        <mxCell id="UnctlhhIIt_SyHVeLb5L-1" value="KFIP website" style="text;html=1;strokeColor=none;fillColor=none;align=center;verticalAlign=middle;whiteSpace=wrap;rounded=0;fontSize=23;fontStyle=1" parent="1" vertex="1">
          <mxGeometry x="460" y="90" width="150" height="30" as="geometry" />
        </mxCell>
        <mxCell id="UnctlhhIIt_SyHVeLb5L-3" value="閲覧者" style="shape=umlActor;verticalLabelPosition=bottom;verticalAlign=top;html=1;outlineConnect=0;fontSize=17;" parent="1" vertex="1">
          <mxGeometry x="70" y="140" width="30" height="60" as="geometry" />
        </mxCell>
        <mxCell id="UnctlhhIIt_SyHVeLb5L-4" value="管理者" style="shape=umlActor;verticalLabelPosition=bottom;verticalAlign=top;html=1;outlineConnect=0;fontSize=17;" parent="1" vertex="1">
          <mxGeometry x="960" y="390" width="30" height="60" as="geometry" />
        </mxCell>
        <mxCell id="UnctlhhIIt_SyHVeLb5L-5" value="サークルメンバー" style="shape=umlActor;verticalLabelPosition=bottom;verticalAlign=top;html=1;outlineConnect=0;fontSize=17;" parent="1" vertex="1">
          <mxGeometry x="71" y="390" width="30" height="60" as="geometry" />
        </mxCell>
        <mxCell id="UnctlhhIIt_SyHVeLb5L-6" value="UC:01&lt;br&gt;制作ゲームを見る" style="ellipse;whiteSpace=wrap;html=1;fontSize=17;" parent="1" vertex="1">
          <mxGeometry x="325.5" y="130" width="176" height="80" as="geometry" />
        </mxCell>
        <mxCell id="UnctlhhIIt_SyHVeLb5L-8" value="UC:04&lt;br&gt;コメントする" style="ellipse;whiteSpace=wrap;html=1;fontSize=17;" parent="1" vertex="1">
          <mxGeometry x="220" y="480" width="176" height="80" as="geometry" />
        </mxCell>
        <mxCell id="UnctlhhIIt_SyHVeLb5L-9" value="" style="endArrow=none;html=1;rounded=0;fontSize=17;entryX=0;entryY=0.5;entryDx=0;entryDy=0;" parent="1" target="UnctlhhIIt_SyHVeLb5L-6" edge="1">
          <mxGeometry width="50" height="50" relative="1" as="geometry">
            <mxPoint x="120" y="170" as="sourcePoint" />
            <mxPoint x="440" y="280" as="targetPoint" />
          </mxGeometry>
        </mxCell>
        <mxCell id="UnctlhhIIt_SyHVeLb5L-10" value="" style="endArrow=none;html=1;rounded=0;fontSize=17;entryX=0;entryY=0;entryDx=0;entryDy=0;" parent="1" target="UnctlhhIIt_SyHVeLb5L-16" edge="1">
          <mxGeometry width="50" height="50" relative="1" as="geometry">
            <mxPoint x="130" y="190" as="sourcePoint" />
            <mxPoint x="440" y="280" as="targetPoint" />
          </mxGeometry>
        </mxCell>
        <mxCell id="UnctlhhIIt_SyHVeLb5L-11" value="" style="endArrow=none;html=1;rounded=0;fontSize=17;entryX=0;entryY=0.5;entryDx=0;entryDy=0;" parent="1" target="UnctlhhIIt_SyHVeLb5L-19" edge="1">
          <mxGeometry width="50" height="50" relative="1" as="geometry">
            <mxPoint x="130" y="420" as="sourcePoint" />
            <mxPoint x="440" y="280" as="targetPoint" />
          </mxGeometry>
        </mxCell>
        <mxCell id="UnctlhhIIt_SyHVeLb5L-13" value="" style="endArrow=none;html=1;rounded=0;fontSize=17;exitX=0.5;exitY=0;exitDx=0;exitDy=0;" parent="1" source="UnctlhhIIt_SyHVeLb5L-8" edge="1">
          <mxGeometry width="50" height="50" relative="1" as="geometry">
            <mxPoint x="390" y="330" as="sourcePoint" />
            <mxPoint x="130" y="210" as="targetPoint" />
          </mxGeometry>
        </mxCell>
        <mxCell id="UnctlhhIIt_SyHVeLb5L-15" value="UC:05&lt;br&gt;サイトを管理する" style="ellipse;whiteSpace=wrap;html=1;fontSize=17;" parent="1" vertex="1">
          <mxGeometry x="440" y="480" width="200" height="80" as="geometry" />
        </mxCell>
        <mxCell id="UnctlhhIIt_SyHVeLb5L-16" value="UC:02&lt;br&gt;制作ゲームを&lt;br&gt;ダウンロードする" style="ellipse;whiteSpace=wrap;html=1;fontSize=17;" parent="1" vertex="1">
          <mxGeometry x="321.5" y="250" width="180" height="80" as="geometry" />
        </mxCell>
        <mxCell id="UnctlhhIIt_SyHVeLb5L-19" value="UC:03&lt;br&gt;制作ゲームを&lt;br&gt;アップロードする" style="ellipse;whiteSpace=wrap;html=1;fontSize=17;" parent="1" vertex="1">
          <mxGeometry x="321.5" y="350" width="180" height="80" as="geometry" />
        </mxCell>
        <mxCell id="UnctlhhIIt_SyHVeLb5L-20" value="" style="endArrow=none;html=1;rounded=0;fontSize=17;exitX=1;exitY=0.5;exitDx=0;exitDy=0;" parent="1" source="UnctlhhIIt_SyHVeLb5L-15" edge="1">
          <mxGeometry width="50" height="50" relative="1" as="geometry">
            <mxPoint x="390" y="530" as="sourcePoint" />
            <mxPoint x="950" y="430" as="targetPoint" />
          </mxGeometry>
        </mxCell>
        <mxCell id="UnctlhhIIt_SyHVeLb5L-21" value="UC:05-1&lt;br&gt;コメントを管理する" style="ellipse;whiteSpace=wrap;html=1;fontSize=17;" parent="1" vertex="1">
          <mxGeometry x="209.5" y="640" width="197" height="80" as="geometry" />
        </mxCell>
        <mxCell id="UnctlhhIIt_SyHVeLb5L-22" value="UC:05-3&lt;br&gt;メンバーを管理する" style="ellipse;whiteSpace=wrap;html=1;fontSize=17;" parent="1" vertex="1">
          <mxGeometry x="670" y="630" width="197" height="80" as="geometry" />
        </mxCell>
        <mxCell id="UnctlhhIIt_SyHVeLb5L-23" value="UC:05-2&lt;br&gt;お知らせを管理する" style="ellipse;whiteSpace=wrap;html=1;fontSize=17;" parent="1" vertex="1">
          <mxGeometry x="443" y="660" width="197" height="80" as="geometry" />
        </mxCell>
        <mxCell id="UnctlhhIIt_SyHVeLb5L-29" value="" style="endArrow=none;dashed=1;html=1;rounded=0;fontSize=17;entryX=0.5;entryY=0;entryDx=0;entryDy=0;" parent="1" target="UnctlhhIIt_SyHVeLb5L-22" edge="1">
          <mxGeometry width="50" height="50" relative="1" as="geometry">
            <mxPoint x="540" y="610" as="sourcePoint" />
            <mxPoint x="440" y="460" as="targetPoint" />
          </mxGeometry>
        </mxCell>
        <mxCell id="UnctlhhIIt_SyHVeLb5L-31" value="" style="endArrow=none;dashed=1;html=1;rounded=0;fontSize=17;exitX=0.5;exitY=0;exitDx=0;exitDy=0;" parent="1" source="UnctlhhIIt_SyHVeLb5L-21" edge="1">
          <mxGeometry width="50" height="50" relative="1" as="geometry">
            <mxPoint x="390" y="510" as="sourcePoint" />
            <mxPoint x="540" y="610" as="targetPoint" />
          </mxGeometry>
        </mxCell>
        <mxCell id="UnctlhhIIt_SyHVeLb5L-32" value="&amp;lt;&amp;lt;include&amp;gt;&amp;gt;" style="text;html=1;strokeColor=none;fillColor=none;align=center;verticalAlign=middle;whiteSpace=wrap;rounded=0;fontSize=17;" parent="1" vertex="1">
          <mxGeometry x="460" y="620" width="60" height="30" as="geometry" />
        </mxCell>
        <mxCell id="lSmq44WDUAsbJsBYbQgb-2" value="&lt;font style=&quot;font-size: 17px&quot;&gt;UC:01-1&lt;br&gt;ゲームを検索する&lt;br&gt;&lt;/font&gt;" style="ellipse;whiteSpace=wrap;html=1;fontSize=23;" parent="1" vertex="1">
          <mxGeometry x="580" y="190" width="180" height="80" as="geometry" />
        </mxCell>
        <mxCell id="lSmq44WDUAsbJsBYbQgb-3" value="" style="endArrow=none;html=1;rounded=0;fontSize=17;entryX=0;entryY=0.5;entryDx=0;entryDy=0;exitX=1;exitY=0.5;exitDx=0;exitDy=0;startArrow=none;" parent="1" source="lSmq44WDUAsbJsBYbQgb-4" target="lSmq44WDUAsbJsBYbQgb-2" edge="1">
          <mxGeometry width="50" height="50" relative="1" as="geometry">
            <mxPoint x="390" y="440" as="sourcePoint" />
            <mxPoint x="440" y="390" as="targetPoint" />
          </mxGeometry>
        </mxCell>
        <mxCell id="lSmq44WDUAsbJsBYbQgb-4" value="" style="triangle;whiteSpace=wrap;html=1;fontSize=17;rotation=-131;" parent="1" vertex="1">
          <mxGeometry x="500" y="170" width="20" height="20" as="geometry" />
        </mxCell>
        <mxCell id="C7ps7MXUUIanhTUX-3WN-2" value="" style="endArrow=none;dashed=1;html=1;rounded=0;fontSize=17;exitX=0.5;exitY=0;exitDx=0;exitDy=0;" parent="1" source="UnctlhhIIt_SyHVeLb5L-23" target="UnctlhhIIt_SyHVeLb5L-15" edge="1">
          <mxGeometry width="50" height="50" relative="1" as="geometry">
            <mxPoint x="541.5" y="660" as="sourcePoint" />
            <mxPoint x="542" y="560" as="targetPoint" />
          </mxGeometry>
        </mxCell>
        <mxCell id="C7ps7MXUUIanhTUX-3WN-3" value="" style="endArrow=none;html=1;rounded=0;fontSize=17;" parent="1" edge="1">
          <mxGeometry width="50" height="50" relative="1" as="geometry">
            <mxPoint x="530" y="580" as="sourcePoint" />
            <mxPoint x="550" y="580" as="targetPoint" />
            <Array as="points">
              <mxPoint x="540" y="560" />
            </Array>
          </mxGeometry>
        </mxCell>
      </root>
    </mxGraphModel>
  </diagram>
  <diagram id="hqqcF_i-qAJompUHloqv" name="view flow">
    <mxGraphModel dx="1422" dy="762" grid="1" gridSize="10" guides="1" tooltips="1" connect="1" arrows="1" fold="1" page="1" pageScale="1" pageWidth="1169" pageHeight="827" math="0" shadow="0">
      <root>
        <mxCell id="Oxms8DEm8v7QBsaq4cV5-0" />
        <mxCell id="Oxms8DEm8v7QBsaq4cV5-1" parent="Oxms8DEm8v7QBsaq4cV5-0" />
        <mxCell id="qLW_QcxfSuufsoovuB6Y-15" value="" style="edgeStyle=orthogonalEdgeStyle;rounded=0;orthogonalLoop=1;jettySize=auto;html=1;fontSize=17;" parent="Oxms8DEm8v7QBsaq4cV5-1" source="qLW_QcxfSuufsoovuB6Y-0" target="qLW_QcxfSuufsoovuB6Y-1" edge="1">
          <mxGeometry relative="1" as="geometry" />
        </mxCell>
        <mxCell id="qLW_QcxfSuufsoovuB6Y-0" value="トップ画面&lt;br&gt;&lt;br&gt;お知らせ一覧" style="html=1;fontSize=17;" parent="Oxms8DEm8v7QBsaq4cV5-1" vertex="1">
          <mxGeometry x="60" y="90" width="170" height="100" as="geometry" />
        </mxCell>
        <mxCell id="qLW_QcxfSuufsoovuB6Y-1" value="お知らせ&lt;br&gt;詳細画面" style="rounded=0;whiteSpace=wrap;html=1;fontSize=17;" parent="Oxms8DEm8v7QBsaq4cV5-1" vertex="1">
          <mxGeometry x="85" y="240" width="120" height="60" as="geometry" />
        </mxCell>
        <mxCell id="qLW_QcxfSuufsoovuB6Y-2" value="" style="endArrow=classic;html=1;rounded=0;fontSize=17;entryX=0.5;entryY=0;entryDx=0;entryDy=0;" parent="Oxms8DEm8v7QBsaq4cV5-1" source="qLW_QcxfSuufsoovuB6Y-0" target="qLW_QcxfSuufsoovuB6Y-1" edge="1">
          <mxGeometry width="50" height="50" relative="1" as="geometry">
            <mxPoint x="145" y="190" as="sourcePoint" />
            <mxPoint x="440" y="330" as="targetPoint" />
          </mxGeometry>
        </mxCell>
        <mxCell id="qLW_QcxfSuufsoovuB6Y-3" value="ゲーム一覧画面" style="rounded=0;whiteSpace=wrap;html=1;fontSize=17;" parent="Oxms8DEm8v7QBsaq4cV5-1" vertex="1">
          <mxGeometry x="370" y="90" width="150" height="90" as="geometry" />
        </mxCell>
        <mxCell id="qLW_QcxfSuufsoovuB6Y-4" value="" style="endArrow=classic;html=1;rounded=0;fontSize=17;entryX=0;entryY=0.5;entryDx=0;entryDy=0;" parent="Oxms8DEm8v7QBsaq4cV5-1" target="qLW_QcxfSuufsoovuB6Y-3" edge="1">
          <mxGeometry width="50" height="50" relative="1" as="geometry">
            <mxPoint x="230" y="135" as="sourcePoint" />
            <mxPoint x="440" y="320" as="targetPoint" />
          </mxGeometry>
        </mxCell>
        <mxCell id="qLW_QcxfSuufsoovuB6Y-5" value="ログイン画面" style="rounded=0;whiteSpace=wrap;html=1;fontSize=17;" parent="Oxms8DEm8v7QBsaq4cV5-1" vertex="1">
          <mxGeometry x="370" y="502.5" width="150" height="80" as="geometry" />
        </mxCell>
        <mxCell id="qLW_QcxfSuufsoovuB6Y-6" value="管理画面" style="rounded=0;whiteSpace=wrap;html=1;fontSize=17;" parent="Oxms8DEm8v7QBsaq4cV5-1" vertex="1">
          <mxGeometry x="590" y="660" width="150" height="70" as="geometry" />
        </mxCell>
        <mxCell id="qLW_QcxfSuufsoovuB6Y-7" value="マイページ" style="rounded=0;whiteSpace=wrap;html=1;fontSize=17;" parent="Oxms8DEm8v7QBsaq4cV5-1" vertex="1">
          <mxGeometry x="590" y="500" width="150" height="85" as="geometry" />
        </mxCell>
        <mxCell id="qLW_QcxfSuufsoovuB6Y-8" value="" style="endArrow=classic;html=1;rounded=0;fontSize=17;exitX=0.5;exitY=1;exitDx=0;exitDy=0;" parent="Oxms8DEm8v7QBsaq4cV5-1" source="qLW_QcxfSuufsoovuB6Y-5" target="qLW_QcxfSuufsoovuB6Y-6" edge="1">
          <mxGeometry width="50" height="50" relative="1" as="geometry">
            <mxPoint x="440" y="412.5" as="sourcePoint" />
            <mxPoint x="490" y="362.5" as="targetPoint" />
            <Array as="points">
              <mxPoint x="445" y="695" />
            </Array>
          </mxGeometry>
        </mxCell>
        <mxCell id="qLW_QcxfSuufsoovuB6Y-9" value="" style="endArrow=classic;html=1;rounded=0;fontSize=17;entryX=0;entryY=0.5;entryDx=0;entryDy=0;exitX=1;exitY=0.5;exitDx=0;exitDy=0;" parent="Oxms8DEm8v7QBsaq4cV5-1" source="qLW_QcxfSuufsoovuB6Y-5" target="qLW_QcxfSuufsoovuB6Y-7" edge="1">
          <mxGeometry width="50" height="50" relative="1" as="geometry">
            <mxPoint x="440" y="412.5" as="sourcePoint" />
            <mxPoint x="490" y="362.5" as="targetPoint" />
          </mxGeometry>
        </mxCell>
        <mxCell id="qLW_QcxfSuufsoovuB6Y-10" value="ゲーム詳細画面" style="rounded=0;whiteSpace=wrap;html=1;fontSize=17;" parent="Oxms8DEm8v7QBsaq4cV5-1" vertex="1">
          <mxGeometry x="585" y="90" width="150" height="90" as="geometry" />
        </mxCell>
        <mxCell id="qLW_QcxfSuufsoovuB6Y-11" value="" style="endArrow=classic;html=1;rounded=0;fontSize=17;entryX=0;entryY=0.5;entryDx=0;entryDy=0;exitX=1;exitY=0.5;exitDx=0;exitDy=0;" parent="Oxms8DEm8v7QBsaq4cV5-1" source="qLW_QcxfSuufsoovuB6Y-3" target="qLW_QcxfSuufsoovuB6Y-10" edge="1">
          <mxGeometry width="50" height="50" relative="1" as="geometry">
            <mxPoint x="440" y="370" as="sourcePoint" />
            <mxPoint x="490" y="320" as="targetPoint" />
          </mxGeometry>
        </mxCell>
        <mxCell id="qLW_QcxfSuufsoovuB6Y-12" value="検索画面" style="rounded=0;whiteSpace=wrap;html=1;fontSize=17;" parent="Oxms8DEm8v7QBsaq4cV5-1" vertex="1">
          <mxGeometry x="585" y="210" width="150" height="90" as="geometry" />
        </mxCell>
        <mxCell id="qLW_QcxfSuufsoovuB6Y-13" value="" style="endArrow=classic;html=1;rounded=0;fontSize=17;entryX=0;entryY=0.5;entryDx=0;entryDy=0;exitX=0.5;exitY=1;exitDx=0;exitDy=0;" parent="Oxms8DEm8v7QBsaq4cV5-1" source="qLW_QcxfSuufsoovuB6Y-3" target="qLW_QcxfSuufsoovuB6Y-12" edge="1">
          <mxGeometry width="50" height="50" relative="1" as="geometry">
            <mxPoint x="440" y="370" as="sourcePoint" />
            <mxPoint x="490" y="320" as="targetPoint" />
            <Array as="points">
              <mxPoint x="445" y="255" />
            </Array>
          </mxGeometry>
        </mxCell>
        <mxCell id="qLW_QcxfSuufsoovuB6Y-14" value="" style="endArrow=classic;html=1;rounded=0;fontSize=17;exitX=0.5;exitY=0;exitDx=0;exitDy=0;entryX=0.5;entryY=1;entryDx=0;entryDy=0;" parent="Oxms8DEm8v7QBsaq4cV5-1" source="qLW_QcxfSuufsoovuB6Y-12" target="qLW_QcxfSuufsoovuB6Y-10" edge="1">
          <mxGeometry width="50" height="50" relative="1" as="geometry">
            <mxPoint x="440" y="370" as="sourcePoint" />
            <mxPoint x="490" y="320" as="targetPoint" />
            <Array as="points" />
          </mxGeometry>
        </mxCell>
        <mxCell id="qLW_QcxfSuufsoovuB6Y-16" value="メニュー選択" style="text;html=1;strokeColor=none;fillColor=none;align=center;verticalAlign=middle;whiteSpace=wrap;rounded=0;fontSize=17;" parent="Oxms8DEm8v7QBsaq4cV5-1" vertex="1">
          <mxGeometry x="230" y="100" width="120" height="30" as="geometry" />
        </mxCell>
        <mxCell id="qLW_QcxfSuufsoovuB6Y-17" value="" style="endArrow=classic;html=1;rounded=0;fontSize=17;entryX=0;entryY=0.5;entryDx=0;entryDy=0;exitX=0.417;exitY=1.2;exitDx=0;exitDy=0;exitPerimeter=0;" parent="Oxms8DEm8v7QBsaq4cV5-1" source="qLW_QcxfSuufsoovuB6Y-16" target="qLW_QcxfSuufsoovuB6Y-5" edge="1">
          <mxGeometry width="50" height="50" relative="1" as="geometry">
            <mxPoint x="390" y="530" as="sourcePoint" />
            <mxPoint x="440" y="480" as="targetPoint" />
            <Array as="points">
              <mxPoint x="280" y="543" />
            </Array>
          </mxGeometry>
        </mxCell>
        <mxCell id="qLW_QcxfSuufsoovuB6Y-18" value="アップロード画面" style="rounded=0;whiteSpace=wrap;html=1;fontSize=17;" parent="Oxms8DEm8v7QBsaq4cV5-1" vertex="1">
          <mxGeometry x="810" y="500" width="150" height="85" as="geometry" />
        </mxCell>
        <mxCell id="qLW_QcxfSuufsoovuB6Y-19" value="" style="endArrow=classic;html=1;rounded=0;fontSize=17;entryX=0;entryY=0.5;entryDx=0;entryDy=0;exitX=1;exitY=0.5;exitDx=0;exitDy=0;" parent="Oxms8DEm8v7QBsaq4cV5-1" source="qLW_QcxfSuufsoovuB6Y-7" target="qLW_QcxfSuufsoovuB6Y-18" edge="1">
          <mxGeometry width="50" height="50" relative="1" as="geometry">
            <mxPoint x="570" y="500" as="sourcePoint" />
            <mxPoint x="620" y="450" as="targetPoint" />
          </mxGeometry>
        </mxCell>
        <mxCell id="qLW_QcxfSuufsoovuB6Y-20" value="" style="endArrow=classic;html=1;rounded=0;fontSize=17;exitX=0.5;exitY=0;exitDx=0;exitDy=0;entryX=1;entryY=0.5;entryDx=0;entryDy=0;" parent="Oxms8DEm8v7QBsaq4cV5-1" source="qLW_QcxfSuufsoovuB6Y-18" target="qLW_QcxfSuufsoovuB6Y-10" edge="1">
          <mxGeometry width="50" height="50" relative="1" as="geometry">
            <mxPoint x="570" y="360" as="sourcePoint" />
            <mxPoint x="620" y="310" as="targetPoint" />
            <Array as="points">
              <mxPoint x="885" y="135" />
            </Array>
          </mxGeometry>
        </mxCell>
        <mxCell id="qLW_QcxfSuufsoovuB6Y-21" value="成功" style="text;html=1;strokeColor=none;fillColor=none;align=center;verticalAlign=middle;whiteSpace=wrap;rounded=0;fontSize=17;" parent="Oxms8DEm8v7QBsaq4cV5-1" vertex="1">
          <mxGeometry x="880" y="460" width="60" height="30" as="geometry" />
        </mxCell>
        <mxCell id="qLW_QcxfSuufsoovuB6Y-26" style="edgeStyle=orthogonalEdgeStyle;orthogonalLoop=1;jettySize=auto;html=1;exitX=1;exitY=0.5;exitDx=0;exitDy=0;fontSize=17;curved=1;" parent="Oxms8DEm8v7QBsaq4cV5-1" source="qLW_QcxfSuufsoovuB6Y-18" edge="1">
          <mxGeometry relative="1" as="geometry">
            <mxPoint x="885" y="590" as="targetPoint" />
            <Array as="points">
              <mxPoint x="1000" y="543" />
              <mxPoint x="1000" y="620" />
              <mxPoint x="885" y="620" />
            </Array>
          </mxGeometry>
        </mxCell>
        <mxCell id="qLW_QcxfSuufsoovuB6Y-27" value="失敗" style="text;html=1;strokeColor=none;fillColor=none;align=center;verticalAlign=middle;whiteSpace=wrap;rounded=0;fontSize=17;" parent="Oxms8DEm8v7QBsaq4cV5-1" vertex="1">
          <mxGeometry x="970" y="510" width="60" height="30" as="geometry" />
        </mxCell>
        <mxCell id="qLW_QcxfSuufsoovuB6Y-29" value="Aboutページ" style="rounded=0;whiteSpace=wrap;html=1;fontSize=17;" parent="Oxms8DEm8v7QBsaq4cV5-1" vertex="1">
          <mxGeometry x="370" y="340" width="150" height="80" as="geometry" />
        </mxCell>
        <mxCell id="qLW_QcxfSuufsoovuB6Y-30" value="" style="endArrow=classic;html=1;rounded=0;fontSize=17;entryX=0;entryY=0.5;entryDx=0;entryDy=0;" parent="Oxms8DEm8v7QBsaq4cV5-1" target="qLW_QcxfSuufsoovuB6Y-29" edge="1">
          <mxGeometry width="50" height="50" relative="1" as="geometry">
            <mxPoint x="280" y="140" as="sourcePoint" />
            <mxPoint x="620" y="310" as="targetPoint" />
            <Array as="points">
              <mxPoint x="280" y="380" />
            </Array>
          </mxGeometry>
        </mxCell>
        <mxCell id="qLW_QcxfSuufsoovuB6Y-31" value="お知らせ投稿画面" style="rounded=0;whiteSpace=wrap;html=1;fontSize=17;" parent="Oxms8DEm8v7QBsaq4cV5-1" vertex="1">
          <mxGeometry x="810" y="660" width="150" height="70" as="geometry" />
        </mxCell>
        <mxCell id="qLW_QcxfSuufsoovuB6Y-32" value="" style="endArrow=classic;html=1;rounded=0;fontSize=17;entryX=0;entryY=0.5;entryDx=0;entryDy=0;exitX=1;exitY=0.5;exitDx=0;exitDy=0;" parent="Oxms8DEm8v7QBsaq4cV5-1" source="qLW_QcxfSuufsoovuB6Y-6" target="qLW_QcxfSuufsoovuB6Y-31" edge="1">
          <mxGeometry width="50" height="50" relative="1" as="geometry">
            <mxPoint x="750" y="552.5" as="sourcePoint" />
            <mxPoint x="820" y="552.5" as="targetPoint" />
          </mxGeometry>
        </mxCell>
      </root>
    </mxGraphModel>
  </diagram>
  <diagram id="q17iD_PxmGGGY34T6oNs" name="memo">
    <mxGraphModel dx="1422" dy="762" grid="1" gridSize="10" guides="1" tooltips="1" connect="1" arrows="1" fold="1" page="1" pageScale="1" pageWidth="1169" pageHeight="827" math="0" shadow="0">
      <root>
        <mxCell id="H0Et2-3BPyRCmr18F_8d-0" />
        <mxCell id="H0Et2-3BPyRCmr18F_8d-1" parent="H0Et2-3BPyRCmr18F_8d-0" />
        <mxCell id="yw6hu8eK8ddh-0jOtXwQ-0" value="&lt;div&gt;仕様の書き出しメモ&lt;/div&gt;&lt;div&gt;&lt;br&gt;&lt;/div&gt;&lt;div&gt;&lt;span&gt;アップロード&lt;/span&gt;&lt;br&gt;&lt;/div&gt;&lt;div&gt;&lt;div&gt;&lt;ul&gt;&lt;li&gt;アップロード時には以下の項目を入力する。&lt;/li&gt;&lt;ul&gt;&lt;li&gt;ゲームタイトル&lt;/li&gt;&lt;li&gt;ゲームが保存されているストレージへのリンク（未完成の場合は省略可）(データベースにアップロードすると容量が怖い)&lt;/li&gt;&lt;li&gt;ゲーム紹介コメント&lt;/li&gt;&lt;ul&gt;&lt;li&gt;キャッチコピー（ゲーム一覧画面で表示される短いゲーム紹介文）&lt;/li&gt;&lt;li&gt;ゲーム説明（ゲーム詳細画面で表示）&lt;/li&gt;&lt;/ul&gt;&lt;li&gt;ゲームのスクリーンショット画像（0～複数枚）&lt;/li&gt;&lt;li&gt;タグ（ジャンルまたは自作タグ。個数制限をつける）&lt;/li&gt;&lt;/ul&gt;&lt;/ul&gt;&lt;div&gt;&lt;div&gt;ゲーム一覧・詳細画面&lt;/div&gt;&lt;div&gt;&lt;ul&gt;&lt;li&gt;ゲーム詳細画面でコメントをつけられるようにする&lt;/li&gt;&lt;li&gt;拍手機能をつける&lt;/li&gt;&lt;li&gt;各ゲームの閲覧回数やダウンロード回数がわかるようにする&lt;/li&gt;&lt;ul&gt;&lt;li&gt;閲覧回数はマイページのみで見れるようにし、ゲーム投稿者だけがわかるようにする&lt;/li&gt;&lt;/ul&gt;&lt;li&gt;ゲーム検索の対象は題名、作者名、ジャンル(タグ）&lt;/li&gt;&lt;li&gt;ゲーム一覧はアップロード日時、最終更新日時、ダウンロード回数、拍手回数でソートできるようにする&lt;/li&gt;&lt;li&gt;最終更新日は作者が内容を更新した、もしくはコメントが投稿されたときとする。&lt;/li&gt;&lt;li&gt;作者（メンバー）の名前とプロフ画像を表示する&lt;/li&gt;&lt;li&gt;作者は何人いてもよいが、存在するメンバーのみ選択できる。&lt;/li&gt;&lt;/ul&gt;&lt;/div&gt;&lt;/div&gt;&lt;/div&gt;&lt;div&gt;コメント&lt;/div&gt;&lt;ul&gt;&lt;li&gt;コメント時には投稿者名、本文を入力する。&lt;/li&gt;&lt;li&gt;投稿ボタンの近くにマナーを守ってコメントするように注意書きを書く&lt;/li&gt;&lt;li&gt;メンバーなら投稿者名を入力する必要をなくす&lt;/li&gt;&lt;ul&gt;&lt;li&gt;コメント投稿者の名前を決める欄の近くに、ログイン画面のリンクを貼る&lt;/li&gt;&lt;li&gt;ログイン後は元の画面に戻す&lt;/li&gt;&lt;li&gt;書いている途中のコメントが保存される方法を考える、もしくは画面遷移前にコメントが消えることを警告する&lt;/li&gt;&lt;/ul&gt;&lt;li&gt;メンバーからのコメントは、色付けしたり吹き出しの方向を変えたりしてわかるようにする&lt;/li&gt;&lt;li&gt;スパムコメント対策を考える&lt;/li&gt;&lt;/ul&gt;&lt;div&gt;お知らせ&lt;/div&gt;&lt;/div&gt;&lt;div&gt;&lt;ul&gt;&lt;li&gt;お知らせは xxxx年x月というカテゴリでまとめる&lt;/li&gt;&lt;li&gt;お知らせ投稿時には題名、本文を入力する。&lt;/li&gt;&lt;li&gt;管理者のみお知らせの投稿、更新、削除ができるようにする。&lt;/li&gt;&lt;/ul&gt;&lt;div&gt;ログイン&lt;/div&gt;&lt;/div&gt;&lt;div&gt;&lt;ul&gt;&lt;li&gt;メンバー新規登録は管理者が行う。&lt;/li&gt;&lt;li&gt;IDは大学メールアドレスもしくは個人のメールアドレスとする&lt;/li&gt;&lt;li&gt;マイページからメンバー脱退ができるようにする&lt;/li&gt;&lt;li&gt;マイページから名前やプロフ画像を変更できるようにする&lt;/li&gt;&lt;li&gt;マイページからアップロードしたゲームの更新、削除ができる&lt;/li&gt;&lt;li&gt;管理人は管理画面からサイトのロゴを画像アップロードによって変更できる&lt;/li&gt;&lt;/ul&gt;&lt;/div&gt;" style="text;html=1;strokeColor=none;fillColor=none;align=left;verticalAlign=middle;whiteSpace=wrap;rounded=0;fontSize=17;" parent="H0Et2-3BPyRCmr18F_8d-1" vertex="1">
          <mxGeometry x="20" y="10" width="1050" height="990" as="geometry" />
        </mxCell>
        <mxCell id="I42EX96WJBcU6OOZt9Dc-0" style="edgeStyle=orthogonalEdgeStyle;curved=1;orthogonalLoop=1;jettySize=auto;html=1;exitX=0.5;exitY=1;exitDx=0;exitDy=0;" edge="1" parent="H0Et2-3BPyRCmr18F_8d-1" source="yw6hu8eK8ddh-0jOtXwQ-0" target="yw6hu8eK8ddh-0jOtXwQ-0">
          <mxGeometry relative="1" as="geometry" />
        </mxCell>
      </root>
    </mxGraphModel>
  </diagram>
  <diagram id="Zj8mTCGoHbxfgw04R7ut" name="E-R">
    <mxGraphModel dx="1422" dy="1589" grid="1" gridSize="10" guides="1" tooltips="1" connect="1" arrows="1" fold="1" page="1" pageScale="1" pageWidth="1169" pageHeight="827" math="0" shadow="0">
      <root>
        <mxCell id="rTLdlGPutX1kmxERK0Ck-0" />
        <mxCell id="rTLdlGPutX1kmxERK0Ck-1" parent="rTLdlGPutX1kmxERK0Ck-0" />
        <mxCell id="bCLBka3R2tsTQHePBDOe-0" value="&lt;div style=&quot;color: rgb(0 , 0 , 0) ; font-family: &amp;#34;helvetica&amp;#34; ; font-size: 17px ; font-style: normal ; font-weight: 400 ; letter-spacing: normal ; text-align: left ; text-indent: 0px ; text-transform: none ; word-spacing: 0px ; background-color: rgb(248 , 249 , 250)&quot;&gt;&lt;b&gt;スキーマ&lt;span&gt;&amp;nbsp;&lt;/span&gt;&lt;/b&gt;(idは省略)&lt;/div&gt;&lt;div style=&quot;color: rgb(0 , 0 , 0) ; font-family: &amp;#34;helvetica&amp;#34; ; font-size: 17px ; font-style: normal ; font-weight: 400 ; letter-spacing: normal ; text-align: left ; text-indent: 0px ; text-transform: none ; word-spacing: 0px ; background-color: rgb(248 , 249 , 250)&quot;&gt;ゲーム（&lt;span&gt;タイトル、リンク、SS画像、タグ、キャッチコピー、説明文、投稿日時、最終更新日、閲覧回数、DL回数、拍手回数）&lt;/span&gt;&lt;/div&gt;&lt;div style=&quot;color: rgb(0 , 0 , 0) ; font-family: &amp;#34;helvetica&amp;#34; ; font-size: 17px ; font-style: normal ; font-weight: 400 ; letter-spacing: normal ; text-align: left ; text-indent: 0px ; text-transform: none ; word-spacing: 0px ; background-color: rgb(248 , 249 , 250)&quot;&gt;タグ（名前）&lt;/div&gt;&lt;span style=&quot;color: rgb(0 , 0 , 0) ; font-family: &amp;#34;helvetica&amp;#34; ; font-size: 17px ; font-style: normal ; font-weight: 400 ; letter-spacing: normal ; text-align: left ; text-indent: 0px ; text-transform: none ; word-spacing: 0px ; background-color: rgb(248 , 249 , 250) ; display: inline ; float: none&quot;&gt;コメント（投稿者名、hashID、本文、投稿日時）&lt;/span&gt;&lt;br style=&quot;color: rgb(0 , 0 , 0) ; font-family: &amp;#34;helvetica&amp;#34; ; font-size: 17px ; font-style: normal ; font-weight: 400 ; letter-spacing: normal ; text-align: left ; text-indent: 0px ; text-transform: none ; word-spacing: 0px ; background-color: rgb(248 , 249 , 250)&quot;&gt;&lt;span style=&quot;color: rgb(0 , 0 , 0) ; font-family: &amp;#34;helvetica&amp;#34; ; font-size: 17px ; font-style: normal ; font-weight: 400 ; letter-spacing: normal ; text-align: left ; text-indent: 0px ; text-transform: none ; word-spacing: 0px ; background-color: rgb(248 , 249 , 250) ; display: inline ; float: none&quot;&gt;メンバー（メールアドレス、パスワード、名前、プロフ画像）&lt;/span&gt;&lt;br style=&quot;color: rgb(0 , 0 , 0) ; font-family: &amp;#34;helvetica&amp;#34; ; font-size: 17px ; font-style: normal ; font-weight: 400 ; letter-spacing: normal ; text-align: left ; text-indent: 0px ; text-transform: none ; word-spacing: 0px ; background-color: rgb(248 , 249 , 250)&quot;&gt;&lt;div style=&quot;color: rgb(0 , 0 , 0) ; font-family: &amp;#34;helvetica&amp;#34; ; font-size: 17px ; font-style: normal ; font-weight: 400 ; letter-spacing: normal ; text-align: left ; text-indent: 0px ; text-transform: none ; word-spacing: 0px ; background-color: rgb(248 , 249 , 250)&quot;&gt;&lt;br&gt;&lt;/div&gt;&lt;div style=&quot;color: rgb(0 , 0 , 0) ; font-family: &amp;#34;helvetica&amp;#34; ; font-size: 17px ; font-style: normal ; font-weight: 400 ; letter-spacing: normal ; text-align: left ; text-indent: 0px ; text-transform: none ; word-spacing: 0px ; background-color: rgb(248 , 249 , 250)&quot;&gt;お知らせ（題名、本文、投稿日時&lt;span&gt;）&lt;/span&gt;&lt;/div&gt;&lt;div style=&quot;color: rgb(0 , 0 , 0) ; font-family: &amp;#34;helvetica&amp;#34; ; font-size: 17px ; font-style: normal ; font-weight: 400 ; letter-spacing: normal ; text-align: left ; text-indent: 0px ; text-transform: none ; word-spacing: 0px ; background-color: rgb(248 , 249 , 250)&quot;&gt;&lt;br&gt;&lt;/div&gt;&lt;div style=&quot;color: rgb(0 , 0 , 0) ; font-family: &amp;#34;helvetica&amp;#34; ; font-size: 17px ; font-style: normal ; font-weight: 400 ; letter-spacing: normal ; text-align: left ; text-indent: 0px ; text-transform: none ; word-spacing: 0px ; background-color: rgb(248 , 249 , 250)&quot;&gt;制作（ゲームid、作者id）&lt;br&gt;&lt;/div&gt;&lt;div style=&quot;color: rgb(0 , 0 , 0) ; font-family: &amp;#34;helvetica&amp;#34; ; font-size: 17px ; font-style: normal ; font-weight: 400 ; letter-spacing: normal ; text-align: left ; text-indent: 0px ; text-transform: none ; word-spacing: 0px ; background-color: rgb(248 , 249 , 250)&quot;&gt;投稿（メンバid、コメントid）&lt;/div&gt;" style="text;whiteSpace=wrap;html=1;" parent="rTLdlGPutX1kmxERK0Ck-1" vertex="1">
          <mxGeometry x="35" y="-800" width="1085" height="220" as="geometry" />
        </mxCell>
        <mxCell id="tZ5q6RtnZYmX_b4tyHRn-17" value="games" style="shape=table;startSize=30;container=1;collapsible=1;childLayout=tableLayout;fixedRows=1;rowLines=0;fontStyle=1;align=center;resizeLast=1;rounded=0;sketch=0;" parent="rTLdlGPutX1kmxERK0Ck-1" vertex="1">
          <mxGeometry x="660" y="-500" width="180" height="390" as="geometry" />
        </mxCell>
        <mxCell id="tZ5q6RtnZYmX_b4tyHRn-18" value="" style="shape=partialRectangle;collapsible=0;dropTarget=0;pointerEvents=0;fillColor=none;top=0;left=0;bottom=1;right=0;points=[[0,0.5],[1,0.5]];portConstraint=eastwest;rounded=0;sketch=0;" parent="tZ5q6RtnZYmX_b4tyHRn-17" vertex="1">
          <mxGeometry y="30" width="180" height="30" as="geometry" />
        </mxCell>
        <mxCell id="tZ5q6RtnZYmX_b4tyHRn-19" value="PK" style="shape=partialRectangle;connectable=0;fillColor=none;top=0;left=0;bottom=0;right=0;fontStyle=1;overflow=hidden;rounded=0;sketch=0;" parent="tZ5q6RtnZYmX_b4tyHRn-18" vertex="1">
          <mxGeometry width="30" height="30" as="geometry">
            <mxRectangle width="30" height="30" as="alternateBounds" />
          </mxGeometry>
        </mxCell>
        <mxCell id="tZ5q6RtnZYmX_b4tyHRn-20" value="gameID" style="shape=partialRectangle;connectable=0;fillColor=none;top=0;left=0;bottom=0;right=0;align=left;spacingLeft=6;fontStyle=5;overflow=hidden;rounded=0;sketch=0;" parent="tZ5q6RtnZYmX_b4tyHRn-18" vertex="1">
          <mxGeometry x="30" width="150" height="30" as="geometry">
            <mxRectangle width="150" height="30" as="alternateBounds" />
          </mxGeometry>
        </mxCell>
        <mxCell id="tZ5q6RtnZYmX_b4tyHRn-21" value="" style="shape=partialRectangle;collapsible=0;dropTarget=0;pointerEvents=0;fillColor=none;top=0;left=0;bottom=0;right=0;points=[[0,0.5],[1,0.5]];portConstraint=eastwest;rounded=0;sketch=0;" parent="tZ5q6RtnZYmX_b4tyHRn-17" vertex="1">
          <mxGeometry y="60" width="180" height="30" as="geometry" />
        </mxCell>
        <mxCell id="tZ5q6RtnZYmX_b4tyHRn-22" value="" style="shape=partialRectangle;connectable=0;fillColor=none;top=0;left=0;bottom=0;right=0;editable=1;overflow=hidden;rounded=0;sketch=0;" parent="tZ5q6RtnZYmX_b4tyHRn-21" vertex="1">
          <mxGeometry width="30" height="30" as="geometry">
            <mxRectangle width="30" height="30" as="alternateBounds" />
          </mxGeometry>
        </mxCell>
        <mxCell id="tZ5q6RtnZYmX_b4tyHRn-23" value="title" style="shape=partialRectangle;connectable=0;fillColor=none;top=0;left=0;bottom=0;right=0;align=left;spacingLeft=6;overflow=hidden;rounded=0;sketch=0;" parent="tZ5q6RtnZYmX_b4tyHRn-21" vertex="1">
          <mxGeometry x="30" width="150" height="30" as="geometry">
            <mxRectangle width="150" height="30" as="alternateBounds" />
          </mxGeometry>
        </mxCell>
        <mxCell id="tZ5q6RtnZYmX_b4tyHRn-24" value="" style="shape=partialRectangle;collapsible=0;dropTarget=0;pointerEvents=0;fillColor=none;top=0;left=0;bottom=0;right=0;points=[[0,0.5],[1,0.5]];portConstraint=eastwest;rounded=0;sketch=0;" parent="tZ5q6RtnZYmX_b4tyHRn-17" vertex="1">
          <mxGeometry y="90" width="180" height="30" as="geometry" />
        </mxCell>
        <mxCell id="tZ5q6RtnZYmX_b4tyHRn-25" value="" style="shape=partialRectangle;connectable=0;fillColor=none;top=0;left=0;bottom=0;right=0;editable=1;overflow=hidden;rounded=0;sketch=0;" parent="tZ5q6RtnZYmX_b4tyHRn-24" vertex="1">
          <mxGeometry width="30" height="30" as="geometry">
            <mxRectangle width="30" height="30" as="alternateBounds" />
          </mxGeometry>
        </mxCell>
        <mxCell id="tZ5q6RtnZYmX_b4tyHRn-26" value="link" style="shape=partialRectangle;connectable=0;fillColor=none;top=0;left=0;bottom=0;right=0;align=left;spacingLeft=6;overflow=hidden;rounded=0;sketch=0;" parent="tZ5q6RtnZYmX_b4tyHRn-24" vertex="1">
          <mxGeometry x="30" width="150" height="30" as="geometry">
            <mxRectangle width="150" height="30" as="alternateBounds" />
          </mxGeometry>
        </mxCell>
        <mxCell id="tZ5q6RtnZYmX_b4tyHRn-27" value="" style="shape=partialRectangle;collapsible=0;dropTarget=0;pointerEvents=0;fillColor=none;top=0;left=0;bottom=0;right=0;points=[[0,0.5],[1,0.5]];portConstraint=eastwest;rounded=0;sketch=0;" parent="tZ5q6RtnZYmX_b4tyHRn-17" vertex="1">
          <mxGeometry y="120" width="180" height="30" as="geometry" />
        </mxCell>
        <mxCell id="tZ5q6RtnZYmX_b4tyHRn-28" value="FK1" style="shape=partialRectangle;connectable=0;fillColor=none;top=0;left=0;bottom=0;right=0;editable=1;overflow=hidden;rounded=0;sketch=0;" parent="tZ5q6RtnZYmX_b4tyHRn-27" vertex="1">
          <mxGeometry width="30" height="30" as="geometry">
            <mxRectangle width="30" height="30" as="alternateBounds" />
          </mxGeometry>
        </mxCell>
        <mxCell id="tZ5q6RtnZYmX_b4tyHRn-29" value="images" style="shape=partialRectangle;connectable=0;fillColor=none;top=0;left=0;bottom=0;right=0;align=left;spacingLeft=6;overflow=hidden;rounded=0;sketch=0;" parent="tZ5q6RtnZYmX_b4tyHRn-27" vertex="1">
          <mxGeometry x="30" width="150" height="30" as="geometry">
            <mxRectangle width="150" height="30" as="alternateBounds" />
          </mxGeometry>
        </mxCell>
        <mxCell id="tZ5q6RtnZYmX_b4tyHRn-30" value="" style="shape=partialRectangle;collapsible=0;dropTarget=0;pointerEvents=0;fillColor=none;top=0;left=0;bottom=0;right=0;points=[[0,0.5],[1,0.5]];portConstraint=eastwest;rounded=0;sketch=0;" parent="tZ5q6RtnZYmX_b4tyHRn-17" vertex="1">
          <mxGeometry y="150" width="180" height="30" as="geometry" />
        </mxCell>
        <mxCell id="tZ5q6RtnZYmX_b4tyHRn-31" value="FK1" style="shape=partialRectangle;connectable=0;fillColor=none;top=0;left=0;bottom=0;right=0;editable=1;overflow=hidden;rounded=0;sketch=0;" parent="tZ5q6RtnZYmX_b4tyHRn-30" vertex="1">
          <mxGeometry width="30" height="30" as="geometry">
            <mxRectangle width="30" height="30" as="alternateBounds" />
          </mxGeometry>
        </mxCell>
        <mxCell id="tZ5q6RtnZYmX_b4tyHRn-32" value="tags" style="shape=partialRectangle;connectable=0;fillColor=none;top=0;left=0;bottom=0;right=0;align=left;spacingLeft=6;overflow=hidden;rounded=0;sketch=0;" parent="tZ5q6RtnZYmX_b4tyHRn-30" vertex="1">
          <mxGeometry x="30" width="150" height="30" as="geometry">
            <mxRectangle width="150" height="30" as="alternateBounds" />
          </mxGeometry>
        </mxCell>
        <mxCell id="tZ5q6RtnZYmX_b4tyHRn-33" value="" style="shape=partialRectangle;collapsible=0;dropTarget=0;pointerEvents=0;fillColor=none;top=0;left=0;bottom=0;right=0;points=[[0,0.5],[1,0.5]];portConstraint=eastwest;rounded=0;sketch=0;" parent="tZ5q6RtnZYmX_b4tyHRn-17" vertex="1">
          <mxGeometry y="180" width="180" height="30" as="geometry" />
        </mxCell>
        <mxCell id="tZ5q6RtnZYmX_b4tyHRn-34" value="" style="shape=partialRectangle;connectable=0;fillColor=none;top=0;left=0;bottom=0;right=0;editable=1;overflow=hidden;rounded=0;sketch=0;" parent="tZ5q6RtnZYmX_b4tyHRn-33" vertex="1">
          <mxGeometry width="30" height="30" as="geometry">
            <mxRectangle width="30" height="30" as="alternateBounds" />
          </mxGeometry>
        </mxCell>
        <mxCell id="tZ5q6RtnZYmX_b4tyHRn-35" value="catch" style="shape=partialRectangle;connectable=0;fillColor=none;top=0;left=0;bottom=0;right=0;align=left;spacingLeft=6;overflow=hidden;rounded=0;sketch=0;" parent="tZ5q6RtnZYmX_b4tyHRn-33" vertex="1">
          <mxGeometry x="30" width="150" height="30" as="geometry">
            <mxRectangle width="150" height="30" as="alternateBounds" />
          </mxGeometry>
        </mxCell>
        <mxCell id="tZ5q6RtnZYmX_b4tyHRn-36" value="" style="shape=partialRectangle;collapsible=0;dropTarget=0;pointerEvents=0;fillColor=none;top=0;left=0;bottom=0;right=0;points=[[0,0.5],[1,0.5]];portConstraint=eastwest;rounded=0;sketch=0;" parent="tZ5q6RtnZYmX_b4tyHRn-17" vertex="1">
          <mxGeometry y="210" width="180" height="30" as="geometry" />
        </mxCell>
        <mxCell id="tZ5q6RtnZYmX_b4tyHRn-37" value="" style="shape=partialRectangle;connectable=0;fillColor=none;top=0;left=0;bottom=0;right=0;editable=1;overflow=hidden;rounded=0;sketch=0;" parent="tZ5q6RtnZYmX_b4tyHRn-36" vertex="1">
          <mxGeometry width="30" height="30" as="geometry">
            <mxRectangle width="30" height="30" as="alternateBounds" />
          </mxGeometry>
        </mxCell>
        <mxCell id="tZ5q6RtnZYmX_b4tyHRn-38" value="description" style="shape=partialRectangle;connectable=0;fillColor=none;top=0;left=0;bottom=0;right=0;align=left;spacingLeft=6;overflow=hidden;rounded=0;sketch=0;" parent="tZ5q6RtnZYmX_b4tyHRn-36" vertex="1">
          <mxGeometry x="30" width="150" height="30" as="geometry">
            <mxRectangle width="150" height="30" as="alternateBounds" />
          </mxGeometry>
        </mxCell>
        <mxCell id="tZ5q6RtnZYmX_b4tyHRn-39" value="" style="shape=partialRectangle;collapsible=0;dropTarget=0;pointerEvents=0;fillColor=none;top=0;left=0;bottom=0;right=0;points=[[0,0.5],[1,0.5]];portConstraint=eastwest;rounded=0;sketch=0;" parent="tZ5q6RtnZYmX_b4tyHRn-17" vertex="1">
          <mxGeometry y="240" width="180" height="30" as="geometry" />
        </mxCell>
        <mxCell id="tZ5q6RtnZYmX_b4tyHRn-40" value="" style="shape=partialRectangle;connectable=0;fillColor=none;top=0;left=0;bottom=0;right=0;editable=1;overflow=hidden;rounded=0;sketch=0;" parent="tZ5q6RtnZYmX_b4tyHRn-39" vertex="1">
          <mxGeometry width="30" height="30" as="geometry">
            <mxRectangle width="30" height="30" as="alternateBounds" />
          </mxGeometry>
        </mxCell>
        <mxCell id="tZ5q6RtnZYmX_b4tyHRn-41" value="created_at" style="shape=partialRectangle;connectable=0;fillColor=none;top=0;left=0;bottom=0;right=0;align=left;spacingLeft=6;overflow=hidden;rounded=0;sketch=0;" parent="tZ5q6RtnZYmX_b4tyHRn-39" vertex="1">
          <mxGeometry x="30" width="150" height="30" as="geometry">
            <mxRectangle width="150" height="30" as="alternateBounds" />
          </mxGeometry>
        </mxCell>
        <mxCell id="tZ5q6RtnZYmX_b4tyHRn-42" value="" style="shape=partialRectangle;collapsible=0;dropTarget=0;pointerEvents=0;fillColor=none;top=0;left=0;bottom=0;right=0;points=[[0,0.5],[1,0.5]];portConstraint=eastwest;rounded=0;sketch=0;" parent="tZ5q6RtnZYmX_b4tyHRn-17" vertex="1">
          <mxGeometry y="270" width="180" height="30" as="geometry" />
        </mxCell>
        <mxCell id="tZ5q6RtnZYmX_b4tyHRn-43" value="" style="shape=partialRectangle;connectable=0;fillColor=none;top=0;left=0;bottom=0;right=0;editable=1;overflow=hidden;rounded=0;sketch=0;" parent="tZ5q6RtnZYmX_b4tyHRn-42" vertex="1">
          <mxGeometry width="30" height="30" as="geometry">
            <mxRectangle width="30" height="30" as="alternateBounds" />
          </mxGeometry>
        </mxCell>
        <mxCell id="tZ5q6RtnZYmX_b4tyHRn-44" value="updated_at" style="shape=partialRectangle;connectable=0;fillColor=none;top=0;left=0;bottom=0;right=0;align=left;spacingLeft=6;overflow=hidden;rounded=0;sketch=0;" parent="tZ5q6RtnZYmX_b4tyHRn-42" vertex="1">
          <mxGeometry x="30" width="150" height="30" as="geometry">
            <mxRectangle width="150" height="30" as="alternateBounds" />
          </mxGeometry>
        </mxCell>
        <mxCell id="tZ5q6RtnZYmX_b4tyHRn-45" value="" style="shape=partialRectangle;collapsible=0;dropTarget=0;pointerEvents=0;fillColor=none;top=0;left=0;bottom=0;right=0;points=[[0,0.5],[1,0.5]];portConstraint=eastwest;rounded=0;sketch=0;" parent="tZ5q6RtnZYmX_b4tyHRn-17" vertex="1">
          <mxGeometry y="300" width="180" height="30" as="geometry" />
        </mxCell>
        <mxCell id="tZ5q6RtnZYmX_b4tyHRn-46" value="" style="shape=partialRectangle;connectable=0;fillColor=none;top=0;left=0;bottom=0;right=0;editable=1;overflow=hidden;rounded=0;sketch=0;" parent="tZ5q6RtnZYmX_b4tyHRn-45" vertex="1">
          <mxGeometry width="30" height="30" as="geometry">
            <mxRectangle width="30" height="30" as="alternateBounds" />
          </mxGeometry>
        </mxCell>
        <mxCell id="tZ5q6RtnZYmX_b4tyHRn-47" value="view" style="shape=partialRectangle;connectable=0;fillColor=none;top=0;left=0;bottom=0;right=0;align=left;spacingLeft=6;overflow=hidden;rounded=0;sketch=0;" parent="tZ5q6RtnZYmX_b4tyHRn-45" vertex="1">
          <mxGeometry x="30" width="150" height="30" as="geometry">
            <mxRectangle width="150" height="30" as="alternateBounds" />
          </mxGeometry>
        </mxCell>
        <mxCell id="tZ5q6RtnZYmX_b4tyHRn-48" value="" style="shape=partialRectangle;collapsible=0;dropTarget=0;pointerEvents=0;fillColor=none;top=0;left=0;bottom=0;right=0;points=[[0,0.5],[1,0.5]];portConstraint=eastwest;rounded=0;sketch=0;" parent="tZ5q6RtnZYmX_b4tyHRn-17" vertex="1">
          <mxGeometry y="330" width="180" height="30" as="geometry" />
        </mxCell>
        <mxCell id="tZ5q6RtnZYmX_b4tyHRn-49" value="" style="shape=partialRectangle;connectable=0;fillColor=none;top=0;left=0;bottom=0;right=0;editable=1;overflow=hidden;rounded=0;sketch=0;" parent="tZ5q6RtnZYmX_b4tyHRn-48" vertex="1">
          <mxGeometry width="30" height="30" as="geometry">
            <mxRectangle width="30" height="30" as="alternateBounds" />
          </mxGeometry>
        </mxCell>
        <mxCell id="tZ5q6RtnZYmX_b4tyHRn-50" value="DL" style="shape=partialRectangle;connectable=0;fillColor=none;top=0;left=0;bottom=0;right=0;align=left;spacingLeft=6;overflow=hidden;rounded=0;sketch=0;" parent="tZ5q6RtnZYmX_b4tyHRn-48" vertex="1">
          <mxGeometry x="30" width="150" height="30" as="geometry">
            <mxRectangle width="150" height="30" as="alternateBounds" />
          </mxGeometry>
        </mxCell>
        <mxCell id="tZ5q6RtnZYmX_b4tyHRn-51" value="" style="shape=partialRectangle;collapsible=0;dropTarget=0;pointerEvents=0;fillColor=none;top=0;left=0;bottom=0;right=0;points=[[0,0.5],[1,0.5]];portConstraint=eastwest;rounded=0;sketch=0;" parent="tZ5q6RtnZYmX_b4tyHRn-17" vertex="1">
          <mxGeometry y="360" width="180" height="30" as="geometry" />
        </mxCell>
        <mxCell id="tZ5q6RtnZYmX_b4tyHRn-52" value="" style="shape=partialRectangle;connectable=0;fillColor=none;top=0;left=0;bottom=0;right=0;editable=1;overflow=hidden;rounded=0;sketch=0;" parent="tZ5q6RtnZYmX_b4tyHRn-51" vertex="1">
          <mxGeometry width="30" height="30" as="geometry">
            <mxRectangle width="30" height="30" as="alternateBounds" />
          </mxGeometry>
        </mxCell>
        <mxCell id="tZ5q6RtnZYmX_b4tyHRn-53" value="clap" style="shape=partialRectangle;connectable=0;fillColor=none;top=0;left=0;bottom=0;right=0;align=left;spacingLeft=6;overflow=hidden;rounded=0;sketch=0;" parent="tZ5q6RtnZYmX_b4tyHRn-51" vertex="1">
          <mxGeometry x="30" width="150" height="30" as="geometry">
            <mxRectangle width="150" height="30" as="alternateBounds" />
          </mxGeometry>
        </mxCell>
        <mxCell id="kQ3DXRT541FYAmBwVhad-37" value="madeBy" style="shape=table;startSize=30;container=1;collapsible=1;childLayout=tableLayout;fixedRows=1;rowLines=0;fontStyle=1;align=center;resizeLast=1;rounded=0;sketch=0;" parent="rTLdlGPutX1kmxERK0Ck-1" vertex="1">
          <mxGeometry x="445" y="-200" width="180" height="100" as="geometry" />
        </mxCell>
        <mxCell id="kQ3DXRT541FYAmBwVhad-38" value="" style="shape=partialRectangle;collapsible=0;dropTarget=0;pointerEvents=0;fillColor=none;top=0;left=0;bottom=0;right=0;points=[[0,0.5],[1,0.5]];portConstraint=eastwest;rounded=0;sketch=0;" parent="kQ3DXRT541FYAmBwVhad-37" vertex="1">
          <mxGeometry y="30" width="180" height="30" as="geometry" />
        </mxCell>
        <mxCell id="kQ3DXRT541FYAmBwVhad-39" value="PK,FK1" style="shape=partialRectangle;connectable=0;fillColor=none;top=0;left=0;bottom=0;right=0;fontStyle=1;overflow=hidden;rounded=0;sketch=0;" parent="kQ3DXRT541FYAmBwVhad-38" vertex="1">
          <mxGeometry width="60" height="30" as="geometry">
            <mxRectangle width="60" height="30" as="alternateBounds" />
          </mxGeometry>
        </mxCell>
        <mxCell id="kQ3DXRT541FYAmBwVhad-40" value="gameID" style="shape=partialRectangle;connectable=0;fillColor=none;top=0;left=0;bottom=0;right=0;align=left;spacingLeft=6;fontStyle=5;overflow=hidden;rounded=0;sketch=0;" parent="kQ3DXRT541FYAmBwVhad-38" vertex="1">
          <mxGeometry x="60" width="120" height="30" as="geometry">
            <mxRectangle width="120" height="30" as="alternateBounds" />
          </mxGeometry>
        </mxCell>
        <mxCell id="kQ3DXRT541FYAmBwVhad-41" value="" style="shape=partialRectangle;collapsible=0;dropTarget=0;pointerEvents=0;fillColor=none;top=0;left=0;bottom=1;right=0;points=[[0,0.5],[1,0.5]];portConstraint=eastwest;rounded=0;sketch=0;" parent="kQ3DXRT541FYAmBwVhad-37" vertex="1">
          <mxGeometry y="60" width="180" height="30" as="geometry" />
        </mxCell>
        <mxCell id="kQ3DXRT541FYAmBwVhad-42" value="PK,FK2" style="shape=partialRectangle;connectable=0;fillColor=none;top=0;left=0;bottom=0;right=0;fontStyle=1;overflow=hidden;rounded=0;sketch=0;" parent="kQ3DXRT541FYAmBwVhad-41" vertex="1">
          <mxGeometry width="60" height="30" as="geometry">
            <mxRectangle width="60" height="30" as="alternateBounds" />
          </mxGeometry>
        </mxCell>
        <mxCell id="kQ3DXRT541FYAmBwVhad-43" value="userID" style="shape=partialRectangle;connectable=0;fillColor=none;top=0;left=0;bottom=0;right=0;align=left;spacingLeft=6;fontStyle=5;overflow=hidden;rounded=0;sketch=0;" parent="kQ3DXRT541FYAmBwVhad-41" vertex="1">
          <mxGeometry x="60" width="120" height="30" as="geometry">
            <mxRectangle width="120" height="30" as="alternateBounds" />
          </mxGeometry>
        </mxCell>
        <mxCell id="kQ3DXRT541FYAmBwVhad-50" value="postBy" style="shape=table;startSize=30;container=1;collapsible=1;childLayout=tableLayout;fixedRows=1;rowLines=0;fontStyle=1;align=center;resizeLast=1;rounded=0;sketch=0;" parent="rTLdlGPutX1kmxERK0Ck-1" vertex="1">
          <mxGeometry x="245" y="-200" width="180" height="100" as="geometry" />
        </mxCell>
        <mxCell id="kQ3DXRT541FYAmBwVhad-54" value="" style="shape=partialRectangle;collapsible=0;dropTarget=0;pointerEvents=0;fillColor=none;top=0;left=0;bottom=1;right=0;points=[[0,0.5],[1,0.5]];portConstraint=eastwest;rounded=0;sketch=0;" parent="kQ3DXRT541FYAmBwVhad-50" vertex="1">
          <mxGeometry y="30" width="180" height="30" as="geometry" />
        </mxCell>
        <mxCell id="kQ3DXRT541FYAmBwVhad-55" value="PK,FK1" style="shape=partialRectangle;connectable=0;fillColor=none;top=0;left=0;bottom=0;right=0;fontStyle=1;overflow=hidden;rounded=0;sketch=0;" parent="kQ3DXRT541FYAmBwVhad-54" vertex="1">
          <mxGeometry width="60" height="30" as="geometry">
            <mxRectangle width="60" height="30" as="alternateBounds" />
          </mxGeometry>
        </mxCell>
        <mxCell id="kQ3DXRT541FYAmBwVhad-56" value="commentID" style="shape=partialRectangle;connectable=0;fillColor=none;top=0;left=0;bottom=0;right=0;align=left;spacingLeft=6;fontStyle=5;overflow=hidden;rounded=0;sketch=0;" parent="kQ3DXRT541FYAmBwVhad-54" vertex="1">
          <mxGeometry x="60" width="120" height="30" as="geometry">
            <mxRectangle width="120" height="30" as="alternateBounds" />
          </mxGeometry>
        </mxCell>
        <mxCell id="kQ3DXRT541FYAmBwVhad-67" value="" style="shape=partialRectangle;collapsible=0;dropTarget=0;pointerEvents=0;fillColor=none;top=0;left=0;bottom=0;right=0;points=[[0,0.5],[1,0.5]];portConstraint=eastwest;rounded=0;sketch=0;" parent="kQ3DXRT541FYAmBwVhad-50" vertex="1">
          <mxGeometry y="60" width="180" height="30" as="geometry" />
        </mxCell>
        <mxCell id="kQ3DXRT541FYAmBwVhad-68" value="FK2" style="shape=partialRectangle;connectable=0;fillColor=none;top=0;left=0;bottom=0;right=0;fontStyle=0;overflow=hidden;rounded=0;sketch=0;" parent="kQ3DXRT541FYAmBwVhad-67" vertex="1">
          <mxGeometry width="60" height="30" as="geometry">
            <mxRectangle width="60" height="30" as="alternateBounds" />
          </mxGeometry>
        </mxCell>
        <mxCell id="kQ3DXRT541FYAmBwVhad-69" value="userID" style="shape=partialRectangle;connectable=0;fillColor=none;top=0;left=0;bottom=0;right=0;align=left;spacingLeft=6;fontStyle=0;overflow=hidden;rounded=0;sketch=0;" parent="kQ3DXRT541FYAmBwVhad-67" vertex="1">
          <mxGeometry x="60" width="120" height="30" as="geometry">
            <mxRectangle width="120" height="30" as="alternateBounds" />
          </mxGeometry>
        </mxCell>
        <mxCell id="kQ3DXRT541FYAmBwVhad-72" value="users" style="shape=table;startSize=30;container=1;collapsible=1;childLayout=tableLayout;fixedRows=1;rowLines=0;fontStyle=1;align=center;resizeLast=1;rounded=0;sketch=0;" parent="rTLdlGPutX1kmxERK0Ck-1" vertex="1">
          <mxGeometry x="350" y="-500" width="180" height="185" as="geometry" />
        </mxCell>
        <mxCell id="kQ3DXRT541FYAmBwVhad-73" value="" style="shape=partialRectangle;collapsible=0;dropTarget=0;pointerEvents=0;fillColor=none;top=0;left=0;bottom=1;right=0;points=[[0,0.5],[1,0.5]];portConstraint=eastwest;rounded=0;sketch=0;" parent="kQ3DXRT541FYAmBwVhad-72" vertex="1">
          <mxGeometry y="30" width="180" height="30" as="geometry" />
        </mxCell>
        <mxCell id="kQ3DXRT541FYAmBwVhad-74" value="PK" style="shape=partialRectangle;connectable=0;fillColor=none;top=0;left=0;bottom=0;right=0;fontStyle=1;overflow=hidden;rounded=0;sketch=0;" parent="kQ3DXRT541FYAmBwVhad-73" vertex="1">
          <mxGeometry width="30" height="30" as="geometry">
            <mxRectangle width="30" height="30" as="alternateBounds" />
          </mxGeometry>
        </mxCell>
        <mxCell id="kQ3DXRT541FYAmBwVhad-75" value="userID" style="shape=partialRectangle;connectable=0;fillColor=none;top=0;left=0;bottom=0;right=0;align=left;spacingLeft=6;fontStyle=5;overflow=hidden;rounded=0;sketch=0;" parent="kQ3DXRT541FYAmBwVhad-73" vertex="1">
          <mxGeometry x="30" width="150" height="30" as="geometry">
            <mxRectangle width="150" height="30" as="alternateBounds" />
          </mxGeometry>
        </mxCell>
        <mxCell id="kQ3DXRT541FYAmBwVhad-76" value="" style="shape=partialRectangle;collapsible=0;dropTarget=0;pointerEvents=0;fillColor=none;top=0;left=0;bottom=0;right=0;points=[[0,0.5],[1,0.5]];portConstraint=eastwest;rounded=0;sketch=0;" parent="kQ3DXRT541FYAmBwVhad-72" vertex="1">
          <mxGeometry y="60" width="180" height="30" as="geometry" />
        </mxCell>
        <mxCell id="kQ3DXRT541FYAmBwVhad-77" value="" style="shape=partialRectangle;connectable=0;fillColor=none;top=0;left=0;bottom=0;right=0;editable=1;overflow=hidden;rounded=0;sketch=0;" parent="kQ3DXRT541FYAmBwVhad-76" vertex="1">
          <mxGeometry width="30" height="30" as="geometry">
            <mxRectangle width="30" height="30" as="alternateBounds" />
          </mxGeometry>
        </mxCell>
        <mxCell id="kQ3DXRT541FYAmBwVhad-78" value="e-mail" style="shape=partialRectangle;connectable=0;fillColor=none;top=0;left=0;bottom=0;right=0;align=left;spacingLeft=6;overflow=hidden;rounded=0;sketch=0;" parent="kQ3DXRT541FYAmBwVhad-76" vertex="1">
          <mxGeometry x="30" width="150" height="30" as="geometry">
            <mxRectangle width="150" height="30" as="alternateBounds" />
          </mxGeometry>
        </mxCell>
        <mxCell id="kQ3DXRT541FYAmBwVhad-79" value="" style="shape=partialRectangle;collapsible=0;dropTarget=0;pointerEvents=0;fillColor=none;top=0;left=0;bottom=0;right=0;points=[[0,0.5],[1,0.5]];portConstraint=eastwest;rounded=0;sketch=0;" parent="kQ3DXRT541FYAmBwVhad-72" vertex="1">
          <mxGeometry y="90" width="180" height="30" as="geometry" />
        </mxCell>
        <mxCell id="kQ3DXRT541FYAmBwVhad-80" value="" style="shape=partialRectangle;connectable=0;fillColor=none;top=0;left=0;bottom=0;right=0;editable=1;overflow=hidden;rounded=0;sketch=0;" parent="kQ3DXRT541FYAmBwVhad-79" vertex="1">
          <mxGeometry width="30" height="30" as="geometry">
            <mxRectangle width="30" height="30" as="alternateBounds" />
          </mxGeometry>
        </mxCell>
        <mxCell id="kQ3DXRT541FYAmBwVhad-81" value="PW" style="shape=partialRectangle;connectable=0;fillColor=none;top=0;left=0;bottom=0;right=0;align=left;spacingLeft=6;overflow=hidden;rounded=0;sketch=0;" parent="kQ3DXRT541FYAmBwVhad-79" vertex="1">
          <mxGeometry x="30" width="150" height="30" as="geometry">
            <mxRectangle width="150" height="30" as="alternateBounds" />
          </mxGeometry>
        </mxCell>
        <mxCell id="kQ3DXRT541FYAmBwVhad-82" value="" style="shape=partialRectangle;collapsible=0;dropTarget=0;pointerEvents=0;fillColor=none;top=0;left=0;bottom=0;right=0;points=[[0,0.5],[1,0.5]];portConstraint=eastwest;rounded=0;sketch=0;" parent="kQ3DXRT541FYAmBwVhad-72" vertex="1">
          <mxGeometry y="120" width="180" height="30" as="geometry" />
        </mxCell>
        <mxCell id="kQ3DXRT541FYAmBwVhad-83" value="" style="shape=partialRectangle;connectable=0;fillColor=none;top=0;left=0;bottom=0;right=0;editable=1;overflow=hidden;rounded=0;sketch=0;" parent="kQ3DXRT541FYAmBwVhad-82" vertex="1">
          <mxGeometry width="30" height="30" as="geometry">
            <mxRectangle width="30" height="30" as="alternateBounds" />
          </mxGeometry>
        </mxCell>
        <mxCell id="kQ3DXRT541FYAmBwVhad-84" value="name" style="shape=partialRectangle;connectable=0;fillColor=none;top=0;left=0;bottom=0;right=0;align=left;spacingLeft=6;overflow=hidden;rounded=0;sketch=0;" parent="kQ3DXRT541FYAmBwVhad-82" vertex="1">
          <mxGeometry x="30" width="150" height="30" as="geometry">
            <mxRectangle width="150" height="30" as="alternateBounds" />
          </mxGeometry>
        </mxCell>
        <mxCell id="kQ3DXRT541FYAmBwVhad-85" value="" style="shape=partialRectangle;collapsible=0;dropTarget=0;pointerEvents=0;fillColor=none;top=0;left=0;bottom=0;right=0;points=[[0,0.5],[1,0.5]];portConstraint=eastwest;rounded=0;sketch=0;" parent="kQ3DXRT541FYAmBwVhad-72" vertex="1">
          <mxGeometry y="150" width="180" height="35" as="geometry" />
        </mxCell>
        <mxCell id="kQ3DXRT541FYAmBwVhad-86" value="" style="shape=partialRectangle;connectable=0;fillColor=none;top=0;left=0;bottom=0;right=0;editable=1;overflow=hidden;rounded=0;sketch=0;" parent="kQ3DXRT541FYAmBwVhad-85" vertex="1">
          <mxGeometry width="30" height="35" as="geometry">
            <mxRectangle width="30" height="35" as="alternateBounds" />
          </mxGeometry>
        </mxCell>
        <mxCell id="kQ3DXRT541FYAmBwVhad-87" value="prof_image" style="shape=partialRectangle;connectable=0;fillColor=none;top=0;left=0;bottom=0;right=0;align=left;spacingLeft=6;overflow=hidden;rounded=0;sketch=0;" parent="kQ3DXRT541FYAmBwVhad-85" vertex="1">
          <mxGeometry x="30" width="150" height="35" as="geometry">
            <mxRectangle width="150" height="35" as="alternateBounds" />
          </mxGeometry>
        </mxCell>
        <mxCell id="uaS5_25zYk52fOQgVWQM-3" value="tags" style="shape=table;startSize=30;container=1;collapsible=1;childLayout=tableLayout;fixedRows=1;rowLines=0;fontStyle=1;align=center;resizeLast=1;rounded=0;sketch=0;" parent="rTLdlGPutX1kmxERK0Ck-1" vertex="1">
          <mxGeometry x="950" y="-363" width="180" height="100" as="geometry" />
        </mxCell>
        <mxCell id="uaS5_25zYk52fOQgVWQM-4" value="" style="shape=partialRectangle;collapsible=0;dropTarget=0;pointerEvents=0;fillColor=none;top=0;left=0;bottom=1;right=0;points=[[0,0.5],[1,0.5]];portConstraint=eastwest;rounded=0;sketch=0;" parent="uaS5_25zYk52fOQgVWQM-3" vertex="1">
          <mxGeometry y="30" width="180" height="30" as="geometry" />
        </mxCell>
        <mxCell id="uaS5_25zYk52fOQgVWQM-5" value="PK" style="shape=partialRectangle;connectable=0;fillColor=none;top=0;left=0;bottom=0;right=0;fontStyle=1;overflow=hidden;rounded=0;sketch=0;" parent="uaS5_25zYk52fOQgVWQM-4" vertex="1">
          <mxGeometry width="60" height="30" as="geometry">
            <mxRectangle width="60" height="30" as="alternateBounds" />
          </mxGeometry>
        </mxCell>
        <mxCell id="uaS5_25zYk52fOQgVWQM-6" value="tagID" style="shape=partialRectangle;connectable=0;fillColor=none;top=0;left=0;bottom=0;right=0;align=left;spacingLeft=6;fontStyle=5;overflow=hidden;rounded=0;sketch=0;" parent="uaS5_25zYk52fOQgVWQM-4" vertex="1">
          <mxGeometry x="60" width="120" height="30" as="geometry">
            <mxRectangle width="120" height="30" as="alternateBounds" />
          </mxGeometry>
        </mxCell>
        <mxCell id="uaS5_25zYk52fOQgVWQM-7" value="" style="shape=partialRectangle;collapsible=0;dropTarget=0;pointerEvents=0;fillColor=none;top=0;left=0;bottom=0;right=0;points=[[0,0.5],[1,0.5]];portConstraint=eastwest;rounded=0;sketch=0;" parent="uaS5_25zYk52fOQgVWQM-3" vertex="1">
          <mxGeometry y="60" width="180" height="30" as="geometry" />
        </mxCell>
        <mxCell id="uaS5_25zYk52fOQgVWQM-8" value="" style="shape=partialRectangle;connectable=0;fillColor=none;top=0;left=0;bottom=0;right=0;fontStyle=0;overflow=hidden;rounded=0;sketch=0;" parent="uaS5_25zYk52fOQgVWQM-7" vertex="1">
          <mxGeometry width="60" height="30" as="geometry">
            <mxRectangle width="60" height="30" as="alternateBounds" />
          </mxGeometry>
        </mxCell>
        <mxCell id="uaS5_25zYk52fOQgVWQM-9" value="name" style="shape=partialRectangle;connectable=0;fillColor=none;top=0;left=0;bottom=0;right=0;align=left;spacingLeft=6;fontStyle=0;overflow=hidden;rounded=0;sketch=0;" parent="uaS5_25zYk52fOQgVWQM-7" vertex="1">
          <mxGeometry x="60" width="120" height="30" as="geometry">
            <mxRectangle width="120" height="30" as="alternateBounds" />
          </mxGeometry>
        </mxCell>
        <mxCell id="uaS5_25zYk52fOQgVWQM-10" value="comments" style="shape=table;startSize=30;container=1;collapsible=1;childLayout=tableLayout;fixedRows=1;rowLines=0;fontStyle=1;align=center;resizeLast=1;rounded=0;sketch=0;" parent="rTLdlGPutX1kmxERK0Ck-1" vertex="1">
          <mxGeometry x="60" y="-500" width="180" height="190" as="geometry" />
        </mxCell>
        <mxCell id="uaS5_25zYk52fOQgVWQM-11" value="" style="shape=partialRectangle;collapsible=0;dropTarget=0;pointerEvents=0;fillColor=none;top=0;left=0;bottom=1;right=0;points=[[0,0.5],[1,0.5]];portConstraint=eastwest;rounded=0;sketch=0;" parent="uaS5_25zYk52fOQgVWQM-10" vertex="1">
          <mxGeometry y="30" width="180" height="30" as="geometry" />
        </mxCell>
        <mxCell id="uaS5_25zYk52fOQgVWQM-12" value="PK" style="shape=partialRectangle;connectable=0;fillColor=none;top=0;left=0;bottom=0;right=0;fontStyle=1;overflow=hidden;rounded=0;sketch=0;" parent="uaS5_25zYk52fOQgVWQM-11" vertex="1">
          <mxGeometry width="60" height="30" as="geometry">
            <mxRectangle width="60" height="30" as="alternateBounds" />
          </mxGeometry>
        </mxCell>
        <mxCell id="uaS5_25zYk52fOQgVWQM-13" value="commentID" style="shape=partialRectangle;connectable=0;fillColor=none;top=0;left=0;bottom=0;right=0;align=left;spacingLeft=6;fontStyle=5;overflow=hidden;rounded=0;sketch=0;" parent="uaS5_25zYk52fOQgVWQM-11" vertex="1">
          <mxGeometry x="60" width="120" height="30" as="geometry">
            <mxRectangle width="120" height="30" as="alternateBounds" />
          </mxGeometry>
        </mxCell>
        <mxCell id="uaS5_25zYk52fOQgVWQM-14" value="" style="shape=partialRectangle;collapsible=0;dropTarget=0;pointerEvents=0;fillColor=none;top=0;left=0;bottom=0;right=0;points=[[0,0.5],[1,0.5]];portConstraint=eastwest;rounded=0;sketch=0;" parent="uaS5_25zYk52fOQgVWQM-10" vertex="1">
          <mxGeometry y="60" width="180" height="30" as="geometry" />
        </mxCell>
        <mxCell id="uaS5_25zYk52fOQgVWQM-15" value="" style="shape=partialRectangle;connectable=0;fillColor=none;top=0;left=0;bottom=0;right=0;fontStyle=0;overflow=hidden;rounded=0;sketch=0;" parent="uaS5_25zYk52fOQgVWQM-14" vertex="1">
          <mxGeometry width="60" height="30" as="geometry">
            <mxRectangle width="60" height="30" as="alternateBounds" />
          </mxGeometry>
        </mxCell>
        <mxCell id="uaS5_25zYk52fOQgVWQM-16" value="name" style="shape=partialRectangle;connectable=0;fillColor=none;top=0;left=0;bottom=0;right=0;align=left;spacingLeft=6;fontStyle=0;overflow=hidden;rounded=0;sketch=0;" parent="uaS5_25zYk52fOQgVWQM-14" vertex="1">
          <mxGeometry x="60" width="120" height="30" as="geometry">
            <mxRectangle width="120" height="30" as="alternateBounds" />
          </mxGeometry>
        </mxCell>
        <mxCell id="uaS5_25zYk52fOQgVWQM-17" value="" style="shape=partialRectangle;collapsible=0;dropTarget=0;pointerEvents=0;fillColor=none;top=0;left=0;bottom=0;right=0;points=[[0,0.5],[1,0.5]];portConstraint=eastwest;rounded=0;sketch=0;" parent="uaS5_25zYk52fOQgVWQM-10" vertex="1">
          <mxGeometry y="90" width="180" height="30" as="geometry" />
        </mxCell>
        <mxCell id="uaS5_25zYk52fOQgVWQM-18" value="" style="shape=partialRectangle;connectable=0;fillColor=none;top=0;left=0;bottom=0;right=0;fontStyle=0;overflow=hidden;rounded=0;sketch=0;" parent="uaS5_25zYk52fOQgVWQM-17" vertex="1">
          <mxGeometry width="60" height="30" as="geometry">
            <mxRectangle width="60" height="30" as="alternateBounds" />
          </mxGeometry>
        </mxCell>
        <mxCell id="uaS5_25zYk52fOQgVWQM-19" value="body" style="shape=partialRectangle;connectable=0;fillColor=none;top=0;left=0;bottom=0;right=0;align=left;spacingLeft=6;fontStyle=0;overflow=hidden;rounded=0;sketch=0;" parent="uaS5_25zYk52fOQgVWQM-17" vertex="1">
          <mxGeometry x="60" width="120" height="30" as="geometry">
            <mxRectangle width="120" height="30" as="alternateBounds" />
          </mxGeometry>
        </mxCell>
        <mxCell id="uaS5_25zYk52fOQgVWQM-20" value="" style="shape=partialRectangle;collapsible=0;dropTarget=0;pointerEvents=0;fillColor=none;top=0;left=0;bottom=0;right=0;points=[[0,0.5],[1,0.5]];portConstraint=eastwest;rounded=0;sketch=0;" parent="uaS5_25zYk52fOQgVWQM-10" vertex="1">
          <mxGeometry y="120" width="180" height="30" as="geometry" />
        </mxCell>
        <mxCell id="uaS5_25zYk52fOQgVWQM-21" value="" style="shape=partialRectangle;connectable=0;fillColor=none;top=0;left=0;bottom=0;right=0;fontStyle=0;overflow=hidden;rounded=0;sketch=0;" parent="uaS5_25zYk52fOQgVWQM-20" vertex="1">
          <mxGeometry width="60" height="30" as="geometry">
            <mxRectangle width="60" height="30" as="alternateBounds" />
          </mxGeometry>
        </mxCell>
        <mxCell id="uaS5_25zYk52fOQgVWQM-22" value="hashID" style="shape=partialRectangle;connectable=0;fillColor=none;top=0;left=0;bottom=0;right=0;align=left;spacingLeft=6;fontStyle=0;overflow=hidden;rounded=0;sketch=0;" parent="uaS5_25zYk52fOQgVWQM-20" vertex="1">
          <mxGeometry x="60" width="120" height="30" as="geometry">
            <mxRectangle width="120" height="30" as="alternateBounds" />
          </mxGeometry>
        </mxCell>
        <mxCell id="uaS5_25zYk52fOQgVWQM-23" value="" style="shape=partialRectangle;collapsible=0;dropTarget=0;pointerEvents=0;fillColor=none;top=0;left=0;bottom=0;right=0;points=[[0,0.5],[1,0.5]];portConstraint=eastwest;rounded=0;sketch=0;" parent="uaS5_25zYk52fOQgVWQM-10" vertex="1">
          <mxGeometry y="150" width="180" height="30" as="geometry" />
        </mxCell>
        <mxCell id="uaS5_25zYk52fOQgVWQM-24" value="" style="shape=partialRectangle;connectable=0;fillColor=none;top=0;left=0;bottom=0;right=0;fontStyle=0;overflow=hidden;rounded=0;sketch=0;" parent="uaS5_25zYk52fOQgVWQM-23" vertex="1">
          <mxGeometry width="60" height="30" as="geometry">
            <mxRectangle width="60" height="30" as="alternateBounds" />
          </mxGeometry>
        </mxCell>
        <mxCell id="uaS5_25zYk52fOQgVWQM-25" value="created_at" style="shape=partialRectangle;connectable=0;fillColor=none;top=0;left=0;bottom=0;right=0;align=left;spacingLeft=6;fontStyle=0;overflow=hidden;rounded=0;sketch=0;" parent="uaS5_25zYk52fOQgVWQM-23" vertex="1">
          <mxGeometry x="60" width="120" height="30" as="geometry">
            <mxRectangle width="120" height="30" as="alternateBounds" />
          </mxGeometry>
        </mxCell>
        <mxCell id="uaS5_25zYk52fOQgVWQM-26" value="images" style="shape=table;startSize=30;container=1;collapsible=1;childLayout=tableLayout;fixedRows=1;rowLines=0;fontStyle=1;align=center;resizeLast=1;rounded=0;sketch=0;" parent="rTLdlGPutX1kmxERK0Ck-1" vertex="1">
          <mxGeometry x="950" y="-500" width="180" height="100" as="geometry" />
        </mxCell>
        <mxCell id="uaS5_25zYk52fOQgVWQM-27" value="" style="shape=partialRectangle;collapsible=0;dropTarget=0;pointerEvents=0;fillColor=none;top=0;left=0;bottom=1;right=0;points=[[0,0.5],[1,0.5]];portConstraint=eastwest;rounded=0;sketch=0;" parent="uaS5_25zYk52fOQgVWQM-26" vertex="1">
          <mxGeometry y="30" width="180" height="30" as="geometry" />
        </mxCell>
        <mxCell id="uaS5_25zYk52fOQgVWQM-28" value="PK" style="shape=partialRectangle;connectable=0;fillColor=none;top=0;left=0;bottom=0;right=0;fontStyle=1;overflow=hidden;rounded=0;sketch=0;" parent="uaS5_25zYk52fOQgVWQM-27" vertex="1">
          <mxGeometry width="60" height="30" as="geometry">
            <mxRectangle width="60" height="30" as="alternateBounds" />
          </mxGeometry>
        </mxCell>
        <mxCell id="uaS5_25zYk52fOQgVWQM-29" value="imagesID" style="shape=partialRectangle;connectable=0;fillColor=none;top=0;left=0;bottom=0;right=0;align=left;spacingLeft=6;fontStyle=5;overflow=hidden;rounded=0;sketch=0;" parent="uaS5_25zYk52fOQgVWQM-27" vertex="1">
          <mxGeometry x="60" width="120" height="30" as="geometry">
            <mxRectangle width="120" height="30" as="alternateBounds" />
          </mxGeometry>
        </mxCell>
        <mxCell id="uaS5_25zYk52fOQgVWQM-30" value="" style="shape=partialRectangle;collapsible=0;dropTarget=0;pointerEvents=0;fillColor=none;top=0;left=0;bottom=0;right=0;points=[[0,0.5],[1,0.5]];portConstraint=eastwest;rounded=0;sketch=0;" parent="uaS5_25zYk52fOQgVWQM-26" vertex="1">
          <mxGeometry y="60" width="180" height="30" as="geometry" />
        </mxCell>
        <mxCell id="uaS5_25zYk52fOQgVWQM-31" value="" style="shape=partialRectangle;connectable=0;fillColor=none;top=0;left=0;bottom=0;right=0;fontStyle=0;overflow=hidden;rounded=0;sketch=0;" parent="uaS5_25zYk52fOQgVWQM-30" vertex="1">
          <mxGeometry width="60" height="30" as="geometry">
            <mxRectangle width="60" height="30" as="alternateBounds" />
          </mxGeometry>
        </mxCell>
        <mxCell id="uaS5_25zYk52fOQgVWQM-32" value="gameID" style="shape=partialRectangle;connectable=0;fillColor=none;top=0;left=0;bottom=0;right=0;align=left;spacingLeft=6;fontStyle=0;overflow=hidden;rounded=0;sketch=0;" parent="uaS5_25zYk52fOQgVWQM-30" vertex="1">
          <mxGeometry x="60" width="120" height="30" as="geometry">
            <mxRectangle width="120" height="30" as="alternateBounds" />
          </mxGeometry>
        </mxCell>
        <mxCell id="uaS5_25zYk52fOQgVWQM-33" value="information" style="shape=table;startSize=30;container=1;collapsible=1;childLayout=tableLayout;fixedRows=1;rowLines=0;fontStyle=1;align=center;resizeLast=1;rounded=0;sketch=0;" parent="rTLdlGPutX1kmxERK0Ck-1" vertex="1">
          <mxGeometry x="35" y="-230" width="180" height="160" as="geometry" />
        </mxCell>
        <mxCell id="uaS5_25zYk52fOQgVWQM-34" value="" style="shape=partialRectangle;collapsible=0;dropTarget=0;pointerEvents=0;fillColor=none;top=0;left=0;bottom=1;right=0;points=[[0,0.5],[1,0.5]];portConstraint=eastwest;rounded=0;sketch=0;" parent="uaS5_25zYk52fOQgVWQM-33" vertex="1">
          <mxGeometry y="30" width="180" height="30" as="geometry" />
        </mxCell>
        <mxCell id="uaS5_25zYk52fOQgVWQM-35" value="PK" style="shape=partialRectangle;connectable=0;fillColor=none;top=0;left=0;bottom=0;right=0;fontStyle=1;overflow=hidden;rounded=0;sketch=0;" parent="uaS5_25zYk52fOQgVWQM-34" vertex="1">
          <mxGeometry width="60" height="30" as="geometry">
            <mxRectangle width="60" height="30" as="alternateBounds" />
          </mxGeometry>
        </mxCell>
        <mxCell id="uaS5_25zYk52fOQgVWQM-36" value="infoID" style="shape=partialRectangle;connectable=0;fillColor=none;top=0;left=0;bottom=0;right=0;align=left;spacingLeft=6;fontStyle=5;overflow=hidden;rounded=0;sketch=0;" parent="uaS5_25zYk52fOQgVWQM-34" vertex="1">
          <mxGeometry x="60" width="120" height="30" as="geometry">
            <mxRectangle width="120" height="30" as="alternateBounds" />
          </mxGeometry>
        </mxCell>
        <mxCell id="uaS5_25zYk52fOQgVWQM-37" value="" style="shape=partialRectangle;collapsible=0;dropTarget=0;pointerEvents=0;fillColor=none;top=0;left=0;bottom=0;right=0;points=[[0,0.5],[1,0.5]];portConstraint=eastwest;rounded=0;sketch=0;" parent="uaS5_25zYk52fOQgVWQM-33" vertex="1">
          <mxGeometry y="60" width="180" height="30" as="geometry" />
        </mxCell>
        <mxCell id="uaS5_25zYk52fOQgVWQM-38" value="" style="shape=partialRectangle;connectable=0;fillColor=none;top=0;left=0;bottom=0;right=0;fontStyle=0;overflow=hidden;rounded=0;sketch=0;" parent="uaS5_25zYk52fOQgVWQM-37" vertex="1">
          <mxGeometry width="60" height="30" as="geometry">
            <mxRectangle width="60" height="30" as="alternateBounds" />
          </mxGeometry>
        </mxCell>
        <mxCell id="uaS5_25zYk52fOQgVWQM-39" value="name" style="shape=partialRectangle;connectable=0;fillColor=none;top=0;left=0;bottom=0;right=0;align=left;spacingLeft=6;fontStyle=0;overflow=hidden;rounded=0;sketch=0;" parent="uaS5_25zYk52fOQgVWQM-37" vertex="1">
          <mxGeometry x="60" width="120" height="30" as="geometry">
            <mxRectangle width="120" height="30" as="alternateBounds" />
          </mxGeometry>
        </mxCell>
        <mxCell id="uaS5_25zYk52fOQgVWQM-40" value="" style="shape=partialRectangle;collapsible=0;dropTarget=0;pointerEvents=0;fillColor=none;top=0;left=0;bottom=0;right=0;points=[[0,0.5],[1,0.5]];portConstraint=eastwest;rounded=0;sketch=0;" parent="uaS5_25zYk52fOQgVWQM-33" vertex="1">
          <mxGeometry y="90" width="180" height="30" as="geometry" />
        </mxCell>
        <mxCell id="uaS5_25zYk52fOQgVWQM-41" value="" style="shape=partialRectangle;connectable=0;fillColor=none;top=0;left=0;bottom=0;right=0;fontStyle=0;overflow=hidden;rounded=0;sketch=0;" parent="uaS5_25zYk52fOQgVWQM-40" vertex="1">
          <mxGeometry width="60" height="30" as="geometry">
            <mxRectangle width="60" height="30" as="alternateBounds" />
          </mxGeometry>
        </mxCell>
        <mxCell id="uaS5_25zYk52fOQgVWQM-42" value="body" style="shape=partialRectangle;connectable=0;fillColor=none;top=0;left=0;bottom=0;right=0;align=left;spacingLeft=6;fontStyle=0;overflow=hidden;rounded=0;sketch=0;" parent="uaS5_25zYk52fOQgVWQM-40" vertex="1">
          <mxGeometry x="60" width="120" height="30" as="geometry">
            <mxRectangle width="120" height="30" as="alternateBounds" />
          </mxGeometry>
        </mxCell>
        <mxCell id="uaS5_25zYk52fOQgVWQM-46" value="" style="shape=partialRectangle;collapsible=0;dropTarget=0;pointerEvents=0;fillColor=none;top=0;left=0;bottom=0;right=0;points=[[0,0.5],[1,0.5]];portConstraint=eastwest;rounded=0;sketch=0;" parent="uaS5_25zYk52fOQgVWQM-33" vertex="1">
          <mxGeometry y="120" width="180" height="30" as="geometry" />
        </mxCell>
        <mxCell id="uaS5_25zYk52fOQgVWQM-47" value="" style="shape=partialRectangle;connectable=0;fillColor=none;top=0;left=0;bottom=0;right=0;fontStyle=0;overflow=hidden;rounded=0;sketch=0;" parent="uaS5_25zYk52fOQgVWQM-46" vertex="1">
          <mxGeometry width="60" height="30" as="geometry">
            <mxRectangle width="60" height="30" as="alternateBounds" />
          </mxGeometry>
        </mxCell>
        <mxCell id="uaS5_25zYk52fOQgVWQM-48" value="created_at" style="shape=partialRectangle;connectable=0;fillColor=none;top=0;left=0;bottom=0;right=0;align=left;spacingLeft=6;fontStyle=0;overflow=hidden;rounded=0;sketch=0;" parent="uaS5_25zYk52fOQgVWQM-46" vertex="1">
          <mxGeometry x="60" width="120" height="30" as="geometry">
            <mxRectangle width="120" height="30" as="alternateBounds" />
          </mxGeometry>
        </mxCell>
        <mxCell id="uaS5_25zYk52fOQgVWQM-49" value="" style="edgeStyle=entityRelationEdgeStyle;fontSize=12;html=1;endArrow=ERzeroToMany;startArrow=ERmandOne;curved=1;entryX=0;entryY=0.25;entryDx=0;entryDy=0;exitX=1;exitY=0.5;exitDx=0;exitDy=0;" parent="rTLdlGPutX1kmxERK0Ck-1" source="tZ5q6RtnZYmX_b4tyHRn-30" target="uaS5_25zYk52fOQgVWQM-3" edge="1">
          <mxGeometry width="100" height="100" relative="1" as="geometry">
            <mxPoint x="530" y="-220" as="sourcePoint" />
            <mxPoint x="630" y="-320" as="targetPoint" />
          </mxGeometry>
        </mxCell>
        <mxCell id="uaS5_25zYk52fOQgVWQM-50" value="" style="edgeStyle=entityRelationEdgeStyle;fontSize=12;html=1;endArrow=ERzeroToMany;startArrow=ERmandOne;curved=1;exitX=1;exitY=0.5;exitDx=0;exitDy=0;entryX=0;entryY=0.25;entryDx=0;entryDy=0;" parent="rTLdlGPutX1kmxERK0Ck-1" source="tZ5q6RtnZYmX_b4tyHRn-27" target="uaS5_25zYk52fOQgVWQM-26" edge="1">
          <mxGeometry width="100" height="100" relative="1" as="geometry">
            <mxPoint x="530" y="-220" as="sourcePoint" />
            <mxPoint x="630" y="-320" as="targetPoint" />
          </mxGeometry>
        </mxCell>
        <mxCell id="uaS5_25zYk52fOQgVWQM-51" value="" style="edgeStyle=entityRelationEdgeStyle;fontSize=12;html=1;endArrow=ERoneToMany;startArrow=ERzeroToMany;curved=1;entryX=1;entryY=0.5;entryDx=0;entryDy=0;exitX=0;exitY=0.5;exitDx=0;exitDy=0;strokeWidth=1;" parent="rTLdlGPutX1kmxERK0Ck-1" source="tZ5q6RtnZYmX_b4tyHRn-18" target="kQ3DXRT541FYAmBwVhad-73" edge="1">
          <mxGeometry width="100" height="100" relative="1" as="geometry">
            <mxPoint x="530" y="-220" as="sourcePoint" />
            <mxPoint x="630" y="-320" as="targetPoint" />
          </mxGeometry>
        </mxCell>
        <mxCell id="uaS5_25zYk52fOQgVWQM-52" value="" style="edgeStyle=entityRelationEdgeStyle;fontSize=12;html=1;endArrow=ERzeroToMany;startArrow=ERmandOne;startSize=6;endSize=6;strokeWidth=1;curved=1;exitX=0;exitY=0.5;exitDx=0;exitDy=0;entryX=1;entryY=0.5;entryDx=0;entryDy=0;" parent="rTLdlGPutX1kmxERK0Ck-1" source="kQ3DXRT541FYAmBwVhad-73" target="uaS5_25zYk52fOQgVWQM-11" edge="1">
          <mxGeometry width="100" height="100" relative="1" as="geometry">
            <mxPoint x="530" y="-220" as="sourcePoint" />
            <mxPoint x="630" y="-320" as="targetPoint" />
          </mxGeometry>
        </mxCell>
        <mxCell id="tizXBnk-vVBuI0sGH08F-0" value="Djangoでは中間テーブルは自動生成される" style="text;html=1;strokeColor=none;fillColor=none;align=center;verticalAlign=middle;whiteSpace=wrap;rounded=0;" vertex="1" parent="rTLdlGPutX1kmxERK0Ck-1">
          <mxGeometry x="310" y="-230" width="240" height="30" as="geometry" />
        </mxCell>
        <mxCell id="tizXBnk-vVBuI0sGH08F-1" value="関連なし" style="text;html=1;strokeColor=none;fillColor=none;align=center;verticalAlign=middle;whiteSpace=wrap;rounded=0;" vertex="1" parent="rTLdlGPutX1kmxERK0Ck-1">
          <mxGeometry x="10" y="-263" width="240" height="30" as="geometry" />
        </mxCell>
      </root>
    </mxGraphModel>
  </diagram>
  <diagram id="mclVuNd-_MWtMySnwfp4" name="Game_list_view">
    <mxGraphModel dx="1422" dy="762" grid="1" gridSize="10" guides="1" tooltips="1" connect="1" arrows="1" fold="1" page="1" pageScale="1" pageWidth="1169" pageHeight="827" math="0" shadow="0">
      <root>
        <mxCell id="NqU_pE2BggsdRJvLbwgH-0" />
        <mxCell id="NqU_pE2BggsdRJvLbwgH-1" parent="NqU_pE2BggsdRJvLbwgH-0" />
        <mxCell id="NqU_pE2BggsdRJvLbwgH-2" value="" style="rounded=0;whiteSpace=wrap;html=1;" vertex="1" parent="NqU_pE2BggsdRJvLbwgH-1">
          <mxGeometry x="27.8" y="30" width="1102.2" height="520" as="geometry" />
        </mxCell>
        <mxCell id="NqU_pE2BggsdRJvLbwgH-5" value="" style="rounded=0;whiteSpace=wrap;html=1;fillColor=#1A1A1A;" vertex="1" parent="NqU_pE2BggsdRJvLbwgH-1">
          <mxGeometry x="27.8" y="30" width="1102.2" height="70" as="geometry" />
        </mxCell>
        <mxCell id="NqU_pE2BggsdRJvLbwgH-4" value="" style="shape=image;verticalLabelPosition=bottom;labelBackgroundColor=#ffffff;verticalAlign=top;aspect=fixed;imageAspect=0;image=data:image/png,iVBORw0KGgoAAAANSUhEUgAABSEAAABrCAYAAACIcEcnAAAgAElEQVR4Ae29918V17u3//wrMaKComJBLFgi9oaIDRERO4pSVZQYjUaNomjQEEM09RNTTTNqNLHEhr3H3gsoZVNyzud7nnPO8/6+7jV7bWZXNrg3ge37h3nNLjNr1txzzSjXvu+1/s9rQcHgwhiQATJABsgAGSADZIAMkAEyQAbIABkgA2SADJABMuAvBv6Pvxpmu4SWDJABMkAGyAAZIANkgAyQATJABsgAGSADZIAMkAFhgBKSmaDMhCUDZIAMkAEyQAbIABkgA2SADJABMkAGyAAZIAN+ZYASkoD5FTD+2sFfO8gAGSADZIAMkAEyQAbIABkgA2SADJABMkAGKCEpISkhyQAZIANkgAyQATJABsgAGSADZIAMkAEyQAbIgF8ZoIQkYH4FjL908JcOMkAGyAAZIANkgAyQATJABsgAGSADZIAMkAFKSEpISkgyQAbIABkgA2SADJABMkAGyAAZIANkgAyQATLgVwYoIQmYXwHjLx38pYMMkAEyQAbIABkgA2SADJABMkAGyAAZIANkgBKSEpISkgyQATJABsgAGSADZIAMkAEyQAbIABkgA2SADPiVAUpIAuZXwPhLB3/pIANkgAyQATJABsgAGSADZIAMkAEyQAbIABmghKSEpIQkA2SADJABMkAGyAAZIANkgAyQATJABsgAGSADfmWAEpKA+RUw/tLBXzrIABkgA2SADJABMkAGyAAZIANkgAyQATJABighKSEpIckAGSADZIAMkAEyQAbIABkgA2SADJABMkAGyIBfGaCEJGB+BYy/dPCXDjJABsgAGSADZIAMkAEyQAbIABkgA2SADJABSkhKSEpIMkAGyAAZIANkgAyQATJABsgAGSADZIAMkAEy4FcGXhkJ2bpTOLpEj/drMGn1afXJABkgA2SADJABMkAGyAAZIANkgAyQATJABsiAMwOvhoRsFYIBC5dh+sHTCImIpIik2ScDZIAMkAEyQAbIABkgA2SADJABMkAGyAAZIAONyMArISFD+w7E7JNXkX6nFCPe3YIWrduhRStZQvFaUAiBa0Tg+EuA8y8BjAljQgbIABkgA2SADJABMkAGyAAZIANkgAwEOgMBLyFbtG6LkRsKkHGvHBn3KzDv/F10Gz4FvSKS0bVLHFoFh1NCUkKSATJABsgAGSADZIAMkAEyQAbIABkgA2SADJABPzIQ8BKy0/AYpFy6h9TrTzHzyAUlI6f/qwiTY/ZjZNQWhHWMxuut2hMyP0IW6Caf58dfq8gAGSADZIAMkAEyQAbIABkgA2SADJABMuCZgYCWkEGhYZj01W6k3y3DuI92InzMZCy48hjpt8qQurIYU2OO4Y2eixHcthfLsikhKaLJABkgA2SADJABMkAGyAAZIANkgAyQATJABvzEQEBLyN4zUpB6oxjJZ28hbNBIhLTvi4QPDhil2UcrMH/aI8QO+QJdO09Ay9ZhhMxPkPGXAM+/BDA+jA8ZIANkgAyQATJABsgAGSADZIAMkAEyEOgMBKyEbN2lB5J+O6GyIIet3ICgNp3QPXwakqafQPq5UmTcKUfK5vtIGnMcA/usRLt2/dGiVVuKSIpIMkAGyAAZIANkgAyQATJABsgAGSADZIAMkAEy4GMGAlNCtgrBoJx3kH63FLOOXULbHv0QGjoAMYN2YO6EW5i1WWbKLsOC8yWYOf0iJg7/AT26zUBQmy4EzMeABbrF5/nxlyoyQAbIABkgA2SADJABMkAGyAAZIANkgAzUzUBASsjQvgMx59R1pN0qQZ+5mWoG7D490jA99gxmjr2IqEHLMePAGVWWnfzpLUyLPYVhb+ShQ4dhaNGqHUUkRSQZIANkgAyQATJABsgAGSADZIAMkAEyQAbIABnwIQMBJyFbtG6HMQWfKsEY/81etO4Qjo4dR2LCsO8wd8JtjBn8uZKNPRPmYMH1YqRdf4FZGVcQP3IfendfgDbB3TlJjQ8B4y8Bdf8SwBgxRmSADJABMkAGyAAZIANkgAyQATJABshAoDMQcBIyfNxkLLj2GAv+eoJu46coqTig91uYPf4Kpo0pQs+IOWjVpitatu2IiV/8pGRlyu77mDHhHKIHbkOnsBi83qo9TTdFJBkgA2SADJABMkAGyAAZIANkgAyQATJABsgAGfARAwElIYPad0b8d/vUZDRjPvgcQW27qJmvE0btV2NBDu+/CW3b9bNNQNN5+BjMv/wI6bfLMHv5FUwdfQT9I5cipG1v2zaBbqF5fvylhQyQATJABsgAGSADZIAMkAEyQAbIABkgA2TA3wwElITsPXuBGgdy7rnb6BA1DCHt+mJk1BYkT7gBEZHhnSehZeswO4M9asMHKhtywdEnmDn5AsYO/QrduiQgqHUnu+38fSHYPm92MkAGyAAZIANkgAyQATJABsgAGSADZIAMkIFAZSBgJGRwt56YceisEopD385FUJvO6NFtFpLGnMDs8dcwsM9KBLeNdBrvMaRHH8wpuq72S86/qbYf3He1mk2bk9Twxg/UG5/nRbbJABkgA2SADJABMkAGyAAZIANkgAyQgcZkICAkZIvWbTFizWYlEqf9fgoh3XojtP0gxAz+FHMn3sGE4bs8jvUYlZGD9LulSL1UgllzLiFu+M9KYLYKDmc2pI/q/hsTah6LD1EyQAbIABkgA2SADJABMkAGyAAZIANkgAw0LQYCQkJ2HDgC887fRerNEvSenQqRh317ZmFm7HnMHHtRvW4d0s2tUAwK7YjE3X8qiTn3q9uYMfYsRkS9h44dhqFFq1C3+xHmpgUzrwevBxkgA2SADJABMkAGyAAZIANkgAyQATJABpomA81eQr4e3B5jC780yqnP3sLQFbkY/mY+ktafwPz8x0jacBIjl72PQYtXYsDiFRiY/bZay2u9yGfjP/5WtZF2/TlmZVzG5FG/oW+PDLQJ6akmqWnRKgTulrrglv1eb93WbnFsy5s2HPfR7x3blvf6O3fruo6nv9f7uzuG3s7VWu/rzdpd+672dXUsftY0HzC8LrwuZIAMkAEyQAbIABkgA2SADJABMkAGyIAw0OwlZERcosqAzLxfgcx7FUokZtwrr/da9tX7p/z2ADPiziFm8Mfo2nk8Nm34EbeuV8NiqURlZSWel1Ti0pkalJdXoqT4OXq/MdBttuTkKUl49qwYFRXGvtLGi+fGa2lLlvMXLqJbz95u24jsF6XaeHivCmWlte2UPDP6Ufy0UvVN+nX1fA1u/VWt2pVjyXEf3K3CsydV6jM53v379xHWtbvb4+mHg4jBc+fO2/bT/dXrW7dvo3XbDi7bCe8eiUePHrvdV7dR3/Xdu/eQmpHl8pi631zz4UYGyAAZIANkgAyQATJABhqHgZExY5Hz1grkby1Qi7yWzxj/xol/IMS5Y5cIJEydjtyNm7Bq9Vqy42JItODQjhg0dARSUtPV/SaxKty+Qy3yWu47+U62kW0DgQueQ2A+Q5q1hJSxIPvMSceIte+pZdS69zFx04+Yt/0O5n/8GIlbDyE293OMXv8RRq8vxOhch7XTZx+p7RPeO4AZM85g6uijiB6yFseOPMHZ4zVK5onYKy2txLkTNbh9vRrnTj3FxOG7MH7od9aJb2pBGTdhmpKHxc8qIaJQhFtZWaXaT8u32zcqkDLlMCYM/R6xgz9HcIhMnlPbhrxenL0Md25Uqf3k+LKIWJQ+3LlRrUTjvdvG+6sXatR72ebJoypcPluDR/drBaR8LmLynZyDiBm4Ha+3au90PH38IcNHobS0TG0vwlX3Wa9/+e6W0e9Bn+N1h7L1+akZTtvr/V52/eLFC2TM+1RNHqT7yrU9M4wH40EGyAAZIANkgAyQATLgTwZEdGQtWmInQsxiRL6jDCGDnhgUYWZmSKSaMORpn1ftOxG0Ihe1cPR2LfvIvq9avHi+Tf+Z06wlpBmwFq3aom27fhgZ9T7mxz1C2uQXSJ5wA7PHX8Hscd4vc8b/hdRJz7Aw8d9InVyCDatOQzIQzx7/W0m/Z08qVQbkhVM1OHuiBjs2lyJ1UjGSYo7bibgxsTNw5OBzJSxFVoo0FAF491YVblwxMhVvX6/Am3OL1f7zJtxFRNcEp4dEyzbt8O1Xx3DuZA1evDCOfeNqtZKiko357GklrpyvUf2TPokglQzJaxeNbaTvIv3k2OVllbh/pwo3r1Xjz/3lWDDpCTp1HO10TB3X1e/kK/H5+EEVLBVGG1ogVlRYsHHZc9X3sUO+tGtDMij37N3nNwkpfTh+sAwzx15ASFv3GaT6PLhu+g8iXiNeIzJABsgAGSADZIAMNB8GRC5KxpoIkS3vf4CIXn1sfw/Ia/lMvpNtKCKbz3VtjHvQnPXoSqiNj5tsY6kx+tNUjyH3zYzZc+3kY0pqhsoY7dt/IGTRfdfvJZtUtjHHVT7jPch7ULPSFNYBIyGD2nRGr4hkTBtThPTJ5ViY+DcWJv7HSyx/IyOhHMf+eIHSF5VKOIqIFNFXUlKpMgxPHq7B0tklSsQN7lubNj4yegoO/V6CP4qqlcCUfaRE+kmZBWeLanD9cjVueSEgBZBevYfg4KFSXL1ehZJi47jSD1muXqhWYlQLUpGFIhgla1MWEY4iH6X/kjF5vqhGCdCKcsmStCB7RjGGvbHR9vAyA/l663b47dfLKpvSKOe2l5AP7lUgbbII1GfoGT7Dro3ukX3x9OlTv0rIC6fKVdyHvZFnd2zzOfA1H7ZkgAyQATJABsgAGSADZODlGBCBISJDyj3NckNJxjXvuhQcss+qNe86bS9tSFu8Ji93TZpj/FxlPWpZbeaKwixY3VNmyS/3TH2yGrXo1fHljwGv3v3WlJ8RASMhW7YOQ2joQIR1jFZLp7DReNmld+QUXLn4HCUVFlw8L3Lvb5w6XoMzV6tUpuHuryuVCFsQ9wTt2w9R/5iOHjsBx/58hL2nq/HnyRr8dcmQgqcuVOPsrUrVxvE/qurMgNTQTE9dhSOnqyHl1udPGhmPZ47XGP1QstEQkpIVKd+fPm4s925VqbErRUpKFqVIScnIlGzIxw+N/m/IeYFpMSfRsrXzuI6DhsTiwmkLrl+pVhJTsg+ljFvGnRQp+e0nhgRMHn8TLdvYjzmRkbXYln0pElRnT5rX8rm778zbuXv9zccvVOzjR+zlf2Icyvc1O1zzHxsyQAbIABkgA2SADJCBl2FAshq1DDGLIk8CUh/PnYhU+65ea5c9qfdpLmuJy7iJ8aqUWEtVOd8+/QfaLVqoSXafCFjZx5w12lzOt6H91DLMXKYv11+y9QYNG+nElnze0GMFyn7Ch4yv6s09Vtc5m+9BafNVYq+u2PD7f+7fxoCRkP6AKHZyisqAvPbUgr/uGCXZh4qqcfh0tZKL768uUyIsMfpPtAhqh4HRcbh85z5O3a3E7jPVShSKHDxcVI1fz1XhzKkaHPy1GjlzjOzJlIn30K2Lcwm2PhfJRvzos2O4fK5GiUSRj8dP1OBgUTWKTAJSPj9p/fzoyRqVISnZlqdP1CgRekwyIK9Vq3ElL0oZuTWT8tuPLVgQ9xhhHUc6PexXvLVFyUqZREfGlJQS8IunDZl55lgN3skwSrHHDPrMbl8pxf72m99UFubTx0b5uMhGkZ+SyfnoQRWePKxSZeMNlZClLyxYlW7E0F0mp44h1//cw4WxZ+zJABkgA2SADJABMtB8GVACw1pyPXPOXJ8IDJEg0pYWkc2ND5GJjkJNzqW+iwghKbVtbufvbX9dZT1K3CR+wpWZLcmY1dLNXGLs7bECaTuJi46FCFl5/7LnJ23oEm1p2xdtvmyfuH/z/XfBF9eOEtJNFlmLViFYtfVHQ/pdq8K9Ugsuna/Gr2eqVZn15XNVWDJLl2KvxoCRk7Dz4EOcfmhB0VMLDpyuhshBEZa/nKnG76eq7QTkvIn30SN8pseHSq8+Q3D8UCnOn6rBsZM1+O10NfadrhWQkvUo0lE+l8zLEydqbOJx/ynjM8nGPFlUg5Mna1R/tICU9dED1ViYVIyh/dbb9SMouD0OHris5KdR2m1kW8o+MhnO8T8qkRZvlGJ3D59mt29Ej364cvGZmo1b5KWUocuYlTJBjmRiSiZlQ+Wjzoo8by3FlgxUT2Na+uIGYRuv9gOS15/XnwyQATJABsgAGXhVGZAMP5FrIg19HQMtInUWoa/b90d7ZkHkTjqKUHvzrRVqcVWO7rhfIAkhT1mPZrko56yzayVGo2LGKs5e9QlpzHGpKyN0UsJUrFpdO9yBvJbPPHGvRSRLs/lvmidOGuM7Skg3EjK0cw/sOvFCycNfzlbh6jML7pRY8OuFKuOzrywqCzJlwgPEjM9WAvKXs9U4fLsSZ19YcOJcNQ6drYbsKxLytz1VWGrNgBQB6TiOoquLnZm5AUeLDJkobYhYlHJwyYKUbMjv/6jE179X4of9ldi3rwo/7a/Ct78bn31/oBI/76/CrgPGd4f2VEMvf+ypwt59VfhxfxWWL3yOpJhjdrNkDx8Rj9NHjczPWmlZo6Tk3ZtV+GaHkQE6e+wVp1LsqVMzsO/nG9j74111vD/3V+Hi6UrcvmHBvdsVXi3PnlpclnBrCfnFB0YptspAdZiV21Uc+RkftGSADJABMkAGyAAZIANkoH4MiEwTaVZXCafIJ5mJV2cIiuSQLD9Pgk3alLblGM3lupilorwWgSpyra74yPnJNrKt7GPXzuraeQWaSxwc+1lX1qN5e7NokzjI+6zFxgzrr/qENFrMy33k7t7p1LU71q7LVfeOo9CW9/KdbGOOuX4tbep7tDnJf91/ruv3/G7K8aKEdCMhJydnYfe5KpVhqOTitSpcKrXg+CML/jhdjc1vG7NiL824g52HHkO2keXQ7UqcK7Xg5O1KHPirErvPV+H73yqxxCQge4TXPRizlGIX7jpjk5i/n65WWY8iIqW0+9uDlUifYsysLbNzv8wis2SbS7KXr9iuMkCl9FuyLQ0RWYMzJ2pw8ngNls83SrFHDfjQ5QNOgO/dfX6D+3TiUJlbCfm8xILl82szUJvyzcW+Bc6DkteS15IMkAEyQAbIABl41RjQksPTeYuA1OWjenu9rivjSraTfT2131S+01lkInHMWX0N7Z+0oYWQPzJNG9ovb/fzNuvR3J4rASntaF7ciTdzG4H62hwHT3x5EpA6jrKNuzjJOJx6Ozmmu+34Of+98ycDfpOQrTp2RXC3nj5Zgjp0adQbREqx87/ei6InFuy7WKVEomQ0nnhsUVmOx65ZkD2zBMtTS3D4eoX6XoSlkpC3rBLyiQV/3q3Erj8tyK6ngJQL3nvQCPx6oVxJyANXqrDvfJWSovuvGWKzYLsxMczc8XdUSXL7DkPxMktQGyPGQSEd8PWvt3BMhOMJo9xbsi6l5PvAqWrs3lM7GU/XzpPsrkvXbr2Rv+UjbNn6EQq2/ICCzYexZcNh5G84jG1bDiFt/oY6+xgRMQYy5qPOenRc61LslIkP0bHDcLvj+/NGYdt8EJMBMkAGyAAZIANkgAy8SgxoWeHpnLWck23ltWRY6QxK+cyTYPOmfU/HbqzvRApJX2WmYW+yHr3tl84GlbZ92a63x2/IdvXJejS370pAyvfCi5y/sGPe/lV7re8jyQp1d+5Sbq3vmbrWnkqzdebpqx5zd3Hm5/7/d95vEjJ64zbMv/LQJ0v0hsb9haxTt57YffYFih5acLrEokqsJavxt6tVSkL+fNAoR/5sRxnOvbDgyN1K/H5dJGQVDlklpJRkH7hUjqUp1izFKc8QNSIHr7UKcftgMQOfkrNRScfDdyqx/1oV9l2uwtH7ldhz0TjO8kVGNuLYwTu9as/ctqfXQ6ITsLfIosa+lBJwmWBHxrOU8SZljMsdmwz5OWvsFbsSbmlzwYJ3IBPfyLiROntSJua5caUaN69WY+7sTQjvHI/2oYPc9nnWnFQ8fVyFh/eM5dkTY1IbLSM/3WqUYk+NPoIWLMV2G0dP15jf+f/ByhgzxmSADJABMkAGyEBzZkCkkRYdns5Db+NY3qmz/CQb0t3+et+mngGnparjObo7r/p8riWczJxdn/0ac9uGZD2a++dOQMo2mhNP2X/mtgLxtfle8ySjzWNA6nvH3Vq2dRcrs/xu6veeu3Pg583731e/ScjYgk+R+cDik2XM1o/d3kT+ADBrUTauvbDgzN1KnCkxsh/PPLcowSjl2JtznyNzSjH2HzEkpYhIyZI8cLUKh28YmZCHb5TjzVSjbDg1sRjpv5Yi+cxN9E/NRovW7Tyej2Qjbv/lvGpTJKSUeMtkN3svGTLytwsVyEgsxsIZxZg46V30GxKNPgOi0XtgNPoONhZ5bV5COnb1eEwdx8XvfqrGsJSJbmRWbxmDUuSjSEVZL5trnNOoqA/s2pPy8Z2fF9lm3q4dS1ImtalRk+BkTTWEbJ8e6Xb76mPL+uOP9uDOjWoUPzVm1tbyUdbPiy14c67RxsA+K922YW6Pr5v3A4rXj9ePDJABMkAGyAAZIAONy4CjNPIUf5FIkiHoWNqpx7cTSeJufz02Yl1l2+72b4zPdZmsnKOjsNECyNt+SAZa1iL7TDdpU9qWthxj6G27/tpOxKD0V5+nrOV66xmuvTmuI0vmGOrSYGnTm7YCdRtv42C+Dt689hQvLX/l2J6243eN++x9VeLtdwmZcbcccw5eQ8rvj5B+sBQZB8uQcbC87uV4OTLvVSiJOe2Tk2oG5yF930X/yKUI6zAKr7fu4JcbRkqxf9v/Ox5VWPCg3IKLLyxqjEcZ51GyG4/etCB7VjFyl5bgSrEF559Z1FiR8v21pxYculmJw9fL8Va6VUBOeob0vHJk3jDOJe1GCUbkvIeQdr3RopVrGfnGsNEoelqGU8XGTNuniy048JeRCSky9OMvjfEov/61DMfvVeK3c9XYd6lKZWRKVuav543ScMnMlAzKvC/2Irh93SXtbdqF4Zu9t1UpdtHx2nLsQ0VGNuQPu3Up9lN06TTOLv49eg1yMZmNnlW7Bl9vr1BjRM4dfxvBbXva7atvtvaduuL58xduS7HPHDeyMGUyoPbtB7tsQ7fFNR+YZIAMkAEyQAbIABkgA2Sg/gxo8aQnDvEUQxFnruSZFoyeBJMSVGuMGX4d5ZynYzbmdzpT0VXpqhZB3vZHYiKL4/a6FNcfmZaOx/L2vS5B1+cofaxvtqInASn90GXBr/qENPr6exq6QOKlr4W3a0/XWv9I4IprT/vxu/o/Txkz55j5X0LeKcWoyVsxc9wlZCX+JxYn/Q+yp/1vncvipf8XmXcNcbfw+7+RnfS/WJj4N6aOPoru4dMQ1Kaz0wPcFxe4a/deKCsrQ7nFghcWC66VGRLyaqmx3vuHUYr9y7eluFxqwaNyC86XWnCv3IJbZRacfGzBxnVGqbRMFrNwyn8ge/r/YvHb/4XMs5VKqqbfeIGJC39Er+5zEdw20klGLt2wWYlPkZ6ySPalzsg89sCCtxeXIDOpGL9drMQf1ytVxqTIyT/vVarZu/ddqYJkUB5/aMHXe8sxf/INzBp7GQmjDiCkbaTbuA2LScSBU5XYd7baVo6957QhIA+frEZBnnHuM2MvokWQvUBNS3vXli0p2ZMynqRMbCNl3DK5zbpso4x6/NDv8FqQ65L05ORMyMzYZaWVLkXkp1uMNqaMOugUM19ce7bh/IBgTBgTMkAGyAAZIANkgAy8OgyMihmrZIerzD9vOdBtiCypS6yJqNKZgLKft8dorO10xphZwLmTQO765JgB6fje20w4d+3743PdJzlXmfncnMHozfHqEpA6w1Tar2/b3hy/OW2jy/1dyXzzefiqHFva1CXZzWl2enMs+Lp5/5vUSBLyfcwadxmLpv4bS6b9PyyZhjqXxUv+G5n3jHLuhbv+o9Ek5KIlbyoBZrFYIMvtciPT8a51/YGUYicW468bFXhYbsH9cgtulxnCUmTkjTILfvrayFRMiXuAKaOPYNzQrzF26E7ET/0NqaefqgzPtBMvMHXCUQzsvRyhoQNsUq1V2w7YffqCEps6+1JEpLyWsu9D18pVKfaGtc9VpqR8J6XaMhblkTuVOPXMopY/blTi0++Nsm2RobNiL6F9+yEe/2FftulzJTElg1LN9m0dE1LGhpQl21qKPaL/Frt2pBT7w69OqZnE95yphszgLaXcIiJ1Kfex36tVSfbRg89x5I/7OPjbfRzYcx+Hf7+PouP3cOniXTx6+AwVFYaAtFgqUVFuLKoUu8SCpbOtpdi9m+6YKXwgNu8HIq8frx8ZIANkgAyQATLwKjOghYinsek8xUdnWIlc8iaTUtpqqkJEizKRpOZzrq+EdMyAdHwvbWsRW5eIMvfD3691Fqicr8xi7m3pbl0CUvqt22YmXu24mHVdT19NTKOPo+5RD2O26u245r+JvmagESXkJWQklGN67GkMeyMP/XotQt+eWW6XIRNzkXGnzFqOXYTE0YeRFl+MxJg//ZYJKaXYew4etsvCE9F4xyobrz2swOIZxdi4rASlFRZUWIySbVmLiJRFXp++XI70hGJI+XjL1mFKMLZs3RFt2/bFkOR3ISXqmXcqkLruuTqf/pE5CGnXFy1atcWQ6FhcfF5uKwEXsflXmZGReaHUgs+sgnPX72W2bEkp1xYZKeXbf9ysVBPafPxtBdKnGNLOEJCey5elXPuLA3cN+Xi22n59phpf/mJR5dSpk56hUyf7Xyl79BuGfSct+PNkDYpMY0jajwupS7P/xrmTNZAJa65frsbNa9W4cbUaf12qxtULNbh8zvju2sVq3PqrGvfvVOHe7Sr8sdso51al2B4mtvH1DcL2+NAlA2SADJABMkAGyAAZeFUYENnkqYTaUxy0WBK5ITKzPhlucsyGHtdTn17mOykTlnNxJ8rkO1m8PYZjBqR5v6ZamiyCWItpOVcpm/ckSr0RkHLerjJMzfF4lV7Xh6O163LrLMuWbbyJXyeiKZoAACAASURBVH2O60173Ib/TnrLQKNJyJljL0IyA0cN+ECN5+duPETd8bDBI5Fx15CQ8R/tRdzwn7Eg/olfJWS3nr3xsLTMTkKWVFhQXGHBkwoLDh8wypH3/VBqly1ZajEyIiVzUsq4yyosWJVegonDf3QqPQ4K7YJpe08ouZr6SzFSJj3ApJF70LPbbLQKDsfyzVtVFuT1MqPUWzItpexbZUKWWrAyu0RNSHPyYYXtszPFFhy8WQkpw5b1t78Z2ZK1GZDuZ6PW8R4+bjp+PqPHknSQkGersTHPyO6cGXtOyVK9n6yzMjeojEcpuxYJKWt3ArJhn9fgvbeN40tJubtybnOf+JoPQTJABsgAGSADZIAMkAEyUD8GJCOvoTJQZ/OJUKtv3JuihNRj9bkrE6+vxHGVAanjVJfw1Nv9U2vpn76+IqrHTYx3usbeCkhd6t1Qzv6pGPjruPXhqFPX7vAkIuU72cabvtbnuN60x23q96x9leNFCRlUC8vSN99SJdjmGZl1WbasP7CO9XjpbLmdqBTxKN+b9/vm4xdImXgPrYO7OT0EBmWvVBJyweknmDHlLGaNu4Sh/TeiS5eROHnxEsoshoA0y0eRkIeulqvsxi0bnqusy5ulFpx/asHphxZce27BX6UW7Dtapsq1lYAcexntvcwazNnwpS37cff5KuvkNrVScvEcY6Kd4W/Yz14mpdgffX0GB4uqcfRkjd1s2g0TjkbG5LkTNbhyrkZlSt76qwrZM4yszqjIHKd4vso3MM+99v5lLBgLMkAGyAAZIANkgAy8HAM6660h5dhaapjHT/TmeuhJUOTY3mzfWNuINJRzqu/5NKR/OgYyU3hD9m+MfSQDUmdsSlxy3lqhSunl2N4KSNlWt/GqT0ijr5nOCtXvvVlLabZ5jEh5LZ95s6/eRq6hMK7fc/1yz07Gz/v4UUKaJOThI0fsRKJZKj57YsHi6YYI+36v+xmc9T6Xz5Wr8vFe3ZKdbuwe8dOVhEy7+gxxk3/EnHFXMXHEj5g6ZRUelVXYMh91KbZkQz6rsOCHb4xswKOHyvC0wvhMsjSlXPxSqQW/HC2zlWDPHntFjTXpzc3QNqwrfjpzBwdvVeLAtUrsuSDyUS/V+MJWil2MsI7RdufTs+9QHDlRjSMna3CoqEbJyD+KjDEhj56sVhPTyOQ0MknNsZM1qmRbtj1cZGwvr+U7mczGGD+yBpfO1qgS7Qd3q1D8tBIHfzUyUOdNvI92oQPsju/N+XEb7x8IjBVjRQbIABkgA2SADJCBV5cBPamMZLvVp5xamBGZItly9dlPtpVjiRDxdszBxuJT+iSLN8eTvkupsog5OR9Z5LV8NmjoCK/aqM/xvOmTv7aRc9VZkdJnKcMXeSqvRWp5uv56nE3Z1tN2/up7U2xXi39PZe6+7re+Dk1N/Pv6PNle0/y3jBLSKiF79envlM2ohaKsD+8zRNiCKY+x5kyxKrs2f+/4uqzUgpw5xYgd/LnTPzoRE6ca5dh/FWPkuC2YNqYISWNOYOtnR3Gl1JCKIh1lfElzhuWahSVqUpyfd53Fzu924fu9N7HrQJlavvyh1CYgZ429Ui9ZFx03Bz+fqbSKR+dS7A257kuxU3I22zIo1WQ2Mp6kdSIbx/WvpklrRDxK2baIRz15jYwVefG0MSakrGU5frAaOdYszPiR+1iKbZLmfKg2zYcqrwuvCxkgA2SADJABMtCcGdCZaiKW6iOKZNv6iBTZXsurhpRw+zPG0jcRZSLbPB1HhJyWqLK9u0UEbV2SVe9bn5h76ps/v5M+michkr7XJSClP3rcUHfjbPqzz021bV3235iZoU29/L+pXiv2yzf/tlNCWqXOipXvuM2CFBG4dfVzNTFLwoTfMffEFZV96CgeHd9/kv8Cs8deg0xKYwa2b3K6kpBzz9xGv8ELkTBqP+bFX8bNG8VKOprFo7Qp729eq1CT3UiZdXjneLRs0xGzxl7GgklPape4x+qzdqFRdsczH9vV69yPv8GJxxacfGLBiUcWHH1gwbEHFvx5rxKHbldi8SwjA3RoP/tBblu2CUXhjxedJeTZauw+U419p6vxe5FkSRoZkVo6elOmfeZYDX7/pQpvWmfknh/3CF06javXebk6V37mmwcH48g4kgEyQAbIABkgA2QgMBlQctBaiiyS0JvrLBmUItq8kW26PS0gvZFXep/GWuvyaE+ZYloeaQEnYkf2k/jJIq/lMzk/LRhTUtPdxlNnxMl+jXWeL3sc6avOihTBWFd7wofEojmdY13n9LLfi5yWmNQl4mWIBImxZNjqe0dzJWv5TL6TbeoaTkH/0FCXGH/Zc+P+gflvxMteV0pIq4Q8cfKkWwn59LEFWVMNEdcnMgPx3+zBvhL7MSAdBaS8LzpSrsRleOc42wO5RZt2mPjZLiUhp/5yBBERiYgfuRfrcu66Pb5IyB926mzEiwhqHWZr72UBaN8lAgdv3rVNciNjT555bsHJxxb8ebcS3+w3ZqUW+dmh/XC740ZGjXIWkNYsSMl63HeyGr8fr8aRo9U48WcNTh3xbtm3qwqFuWU26Zoy8QEiI+bZHftlz5v784FIBsgAGSADZIAMkAEyQAZcMyASTQsOb2Kk5ZKWId7so9uXY3mzfWNuI5JM+udOQmoBKQLOmww22UbLOncisjlKSLkmOlYSL0+ZsFq2CSuNeS2b+rH0vSYZta7iN9Iq+PX94u1a4iz7Op6/HENn7zp+x/eun4eMi2/jQgkZFIzIflGoqKhwKwEP7TVKseeOv43gkF7on74Emx6W25VKu5KQz0ssWDStGCP6b7Hd/DLrd9r1Z8i4W44hOe+iW5cEJIz6DXt+eOb2+CIhpRRbROCoAR/a2vLFzTBhxhycfWFRy6lnFhx/aMHhO5X4/Xol9l2uwoYNhvycFlPkVAqdkvOenYSU7Mc9p6ux/5SRAfl2ppE9Kv2u//IMkv04eeR+dOxgLz99cd5sw7cPEsaT8SQDZIAMkAEyQAbIQGAxoGWHN9fVTkJ6OdlFfdr3pg++3EaLNVcS0iwg68o4M/dJtvUkIpurhJRz1KXZkolnPmfza5195420Ne/3KrzWTMkYovp8RU5KPPV90tC1tGEW/XIMaUuOqY/FdWA9u5v69aSEDArGu+s3uBWAFRUWbF5hyLSJw3apG7Vtz75YcOo6HpTXnQ0pZdwzYs+hRat2aNm+EyZ/t1dlQc47dwcdeg9DZPe5mDOpCI8e2M+4bZaaVy9UIH2yIfK6mrIqfQHXB7t+sQnIoqcWHH9UiaP3K3HkbiX+uF6JRTON4w7pu87uIRUU3B5fH/kL+69WYc/F2kls9LiQO/dVIi3B2HdA5FtKtopw9X6ZjJB2fZzEpy/OmW3wIUsGyAAZIANkgAyQATJABjwzoKWHN3GSLDcpOxYZ6W2Jp7QvUs6b9ht7G8kWk/5Jxpj52HriHvmuPgJStyH76LhKW/pzWWtBaRZG5u+b8mvps+6/K8mo4ynn3hzPz9+xN8dHBLjEyFXJtWanvmtpS9rU2aiyvxzT3+fF9j0/Y1/V+LzyErJFqxCcv3DRrYR8cK9CTQaTOukZIiNS1I3aonVbDF2xHgeflbndT0vEP6wzO3fpNQGxBZ8h4165Wkas2YyQdn0xIiofeW+7L8WWdr77RJdin/NpKXaniF44cvehXSm2lGPrzMifjpQhNb4YC+Keon37wXYPqf7DJmD3OZGPzhPZyGfvbTWyR2WSnFbBXe32fVVvNp43H8JkgAyQATJABsgAGSADzYUBnZnXENlW1zlqGecq07CufRvrez2Wo5ZCM2bPdSsQ69Mns8iU8ftEDunMSzlmfdpqSttqwSXi1lE0ynmK+GL2nfvnn46RiHxfZEA6ikppU2csy7GaEjvsi3suAjE2r7yEHDR0BMrL3Wch7v/JkGnJ46+jdZtw280a1KELln25q04J+fB+BTISipGcd8smICd9+QuCO0ciomsipo7+Ewf3lLptR2bZfifDKMUe3n+z7fi+gDFxfpqRBVksGZDGRDQHb1XiwF9VqhR7/doXqox6SvQhtGjV1u7Ymas+cisgfzpVhTfTjezR6AGFdvv5ot9s49V6SPF683qTATJABsgAGSADZKDxGdBSREptfR1/XX7alGWIPn9HmeOYwdiQ2JhFpLn9phwPb85Tl1yby4plPy2/RLZ6086ruI3KfjRNYmTmwpevRXQ7SuJXMd4858b/N0XH3P8S8m45Zv5wDvO/e4S0Xc8xc+d5xO34GeM+3ImxhV+6XSZ9tVtJu8wHFsR/tBdxw3/GgvgnSIz5E93DpyGoTWefPMDW5W50KwClFHuTtRQ7dsi/nI7XtdcbuPfgodv9dTbkuuwSpC4qQdrt5+p823TugY4dR2DCsO+xcHoJHj1wPx7l1QvlqhRbshE7h41x6oO+kA1Zb//hF1wsteC8NftRJqQ5XWLBqWILjt23YPFso5x6YG/7sT1kVux/HbjpNhNy5z4L0iYbGZThXSb7tM8NOU/u8889YBh7xp4MkAEyQAbIABkgA82XAZ0NKFmAvsiIlDZ0RmFzyPrTslQkkGRt+lKiSVs6vtJ+IGQJSomvLsvWZfk6Q1JEJJ8Fnp8FIgd1/HwpHnVb0jYFpOdrQEb9Hx+/S0iRiC+7+EtCtmzTDhcuui/Fvne7AhlTRMQ9Q49us1w+NL/f9WOdEvJn68zWA+YsQ+v24ejaeSImjdiNjIQKfLiu0uP+X+8wshGnxZxCy9a+mzmuS8/eKLr3CJdFQj63wBgP0oKj9y1qPMivfi23lmI/QbvQKLtzHzgq3m0WpJRib843skdnjr3gM1nMh4H/HwaMMWNMBsgAGSADZIAMkAEyYGZApKFZlGmZIWs9zpx5e/Nrldm1eq2thNlu3zXv+kRqmo/nr9eUNvW7J2RMSLnWIh0ldjo70tVYkf66Zs25Xbnn/CEipU1f/JDQnGPLvtfvXvZXvPwmIWO2foz02y/UknGnDBm3y5F5pwIZd8qRcVvee79M3f4nkmKOIXVyiU8zIUdEj/FYir3ne2Msxjnj/nI7ruG8BekeJaJkQ964WoG0+GLEDNyOcUO/VrM+L5r6/yEjoQwH9z11u/+LFxasTDNKsYe9sdFOBL4sENPTF9nGgpQMyJNPrOXYNyux/1oV1q025GfCqN/VpDrm4y1a+4lbCflTURVyUo0+Rw/Y5tM+m/vA103jAcLrwOtABsgAGSADZIAMkIHAZ0DKhPUYkXYy0TrhhSMD7gSktNHcS44dz5XvnfnXrOiZmIUZylznOLljR90/PizNlh8SGH/v4+/uuvBz38TQbxIyuFsvdOg/BF0GjcOQcbmYM+8vZGX+jUUL/6vey+L5/4XspP/FwsS/MXX0UZ+VY296b4tbAVhRbsGGNw2ZNmbQp25lmvya8PjxE7ft6JLsFQtKkBZfiiXT/h+yk/5biciJ0Z/g0cNnbve9dLZcycsFk56gY8dRbvtQ35tBJuPZ8cs+m4SUyWj0hDQiJI/dq8CiWUYpdlRkjt1xWwa3x5eH7rotxf5yj8Xoc9wTdO00wW7f+vaT2/vmJmccGUcyQAbIABkgA2SADJABXzJgliQyEYk5w0rKjOUzEU+UH68md8KDWVYHQqm5L+8fb9qSe8zduKTm2Nb1WtqggHw170NvOPsntvGbhNQn0yY4Av17LcGscZexaOq/lYRbMg2o7+JrCSml2JcvX3ErAKUUOz3BGNewe9dpbmWaCL0/Dh5y246WkF99JJmFzzB73FVED9yGLp3GYcasVI/7GfsUIynmOF5v1d5tH3SsvV136dUHx+4/xlnrGJAyDuTpYgtOPTPKsr/ZW64mpJkf9xht2/azO+6g0ZOx52KVWwm56T1rKXbsObRs47vycW/PjdvxAUsGyAAZIANkgAyQATJABvzPgIgNXWorIkTKb/UEJPJevqP88P91aKqsmwWaL8fSbKrn669+yTib5rFJ65KO+nvZR/b1V7/Y7qt7b7/stfe7hGwdHI7I7vNVGfKU6IMqk1GyGeu7yIQ0k0f9hmFv5KFD+6F4vXWHl7qh2nXsghUr31FjmezccQ/ff1Zqt3ywzpjdefbYa3WOazgxfopq54vtN+zaMLe5bb209wx9eqTbZpoeO2GS2m9z3k6X+72ZbGQjDu2X+1Ln6ghJt8j+SF2xBlmrtmDrB8+Qv7UUm98rsy1vZRnnPnnkb06l2G8MG49ZWe8iPecLbNpc5rQsnmNkj46M2urTPjueA9/zoUcGyAAZIANkgAyQATJABv55BmSmZym/lTHnRELKaz0pCa/PP399/slrIByYs2T/yb4092OL0Jd4ilyUe8w8Vqu8ls/kO9mG8v/Vvu+aOut+l5CvBYWgRatQJQ1FHL7U0qq9kxR72QC3Du4GGfdwSvQhl0t9xmIc1Ocdl22Y2x7Y+20nOdev5yKP+3VoP9xpn5c9b9m/U8fRHo/bp0ea2+P27r7A476dw2Ld7uuLvrMNPljJABkgA2SADJABMkAGyAAZIANkgAyQATLQfBhoBAnZfIJBcHmtyAAZIANkgAyQATJABsgAGSADZIAMkAEyQAbIgO8ZoIQM8n1QCSpjSgbIABkgA2SADJABMkAGyAAZIANkgAyQATJABmoZCDgJ2bJtw8aKbNEmFC3atGMJMaUsGSADZIAMkAEyQAbIABkgA2SADJABMkAGyAAZ8DEDASUhu8ZMxKSvdiO038B6gfJ6SAeM3lyIwW+upoj0MWA0/rXGn7FgLMgAGSADZIAMkAEyQAbIABkgA2SADDRhBuKWIy83C4k5BchbMr5ebonXte7rGjASstvYeCSfvoHM+xWY9tsJhPYd5BUsQaFhiNn6MTLuliH99nMMfnONWxH5euu2aNuhs127LYNDEdqpq91nvgKvXVhXtGgV4pe2dR/lGPq1Xrv6TH/XFNZyHULad3Lqd1PoG/tQ90OHMWKMyAAZIANkgAyQATJABsgAGSADzYuBsOS1yF+Vgl6mxKWorDzkr07DYNNnzeO6pmHN9h1Ys8D+GsxbtwP5y7KwvCAPmfE5yNucg2h35xY+E8u3FmBlcv+Gu4kFuSjclN0M42cft/pc84CQkFJKHfvhF8h8YDEWEZH7i9BlwHi0DX0DLVuHuYRCSrdjtnyMjHvltn1nH7uMdj2iEBo6EG2Cu9vNxh0R2Rcb3//Q1lZwaEds3fEpRsb6x45/+vX3EMlZnwvas18Uer/hnYCVdl0dY8OWDxAU0t7jcWPjEurdt/qch+O2YydNQUtrubxI36UrV3vsn+P+fN/whwRjx9iRATJABsgAGSADZOAVZkD+SN66HBPc/SHOz/l3CRloggzEIHPTDhSsTUM/X1yfIWlYs60AS+Mjas91SBbWb8tD5hB5Pg7C9KwsxEY6PCsnLEf+9h0o3L4DBQWFpqUA69flo8D6XWHBKiSa+jlhWYHaR/ZztazP8t55uP73y5OETEDiigKsWZCEpZtzMa+Pwzmpfg7DvHWFKFiXhihTv10fy9X+1s/k+bourTamHttKwNKtruPhGKP8ZQletumhbx770vD9AkJCyoVu06UH4r78qVYo3qtAyuF7iI37HBFdExHUpovdRZAMyDHvf6IyIJW8vFeBuaduok9sKqIHfoBJI37BwN7LlYxs0coYKzIish82f/iRakcEZMHHn2PMhHi7dusNnYcL+8Wun+qUgY7Hm548H7PmewtxMOQYjqIzr+DDOo8r8jIk1LXcdeyTL95//u0PaNOuo4q1SMg3V631W9x90V+20fCHEmPH2JEBMkAGyAAZIANkoDEZSMLygh0QCRDv6m+TgJaQfRGdnIM1+YW1oqOwEPnrcjB9lEm2uIpLQHwWgeFJ2Vi5qQAFhVa5UViANUuSX06sBERs/HUPupZfvn/mvYSEdBCOYaOysGZbIdYsGKb+Bg+Lz8bilBQsza/9LGpBLgrylyPeUUK6YSFKsipFTG5chXkJo9Av3Nt4+yp+rtsxMiHrEnh9Ee9BkroTv3WJVXuRWIClcd7GxPN2YfHLkb8tF/OULPa8re85dD5ewEhICVabThGI/2oPMu9VGJmN9yqQerwY4yd/g25dE9GqjVF6HBTa0SkDMvnUDUTGzEPskC+QPrkUmQlVmDamCFGRbyKkbR+0aNUWWkJqARkzfpJfRVhDJGR9oWmohPR3mbjjeZiPRwnpfCM7xovvGSMyQAbIABkgA2SADJABbxiQEsvCrfnIKyzE8iQXMWtsCTlzlfEHsxt54c05ebfNMMxbW4hCkW7LspA4IQbDR8cgdnoaFq/Kx/oldYkIF7Hye599ecxhmP62ZJsVIm9VDmYn6PPPwtJ1uVjsIwFSey2SsXyrSCtfnoM/2vRl/1y15Vp+1cbJ1T6N+dkg2Im4hOXILyzA8pnD8FpcDtbnZiN2SDKWbipE4cYsDA8KRn0llxKW2wuxJi0GYfW+Z6zxS2lgTOR55ia70vnzXMxz7F94DGavLkChZICOs/+hQsWh0CFb1HF/x/f1yoRs4DkHBSM6Ox+FG7ObxI8LASUhXwsKQWi3AZjy1e+1IvKBBanHDBEZ0XUqgsN62WdAPrAgueiGyoAcO+RLJSCzk/4HC6f+p5KQ3cOnIaiNMQ6kSMhtn/0Ln3z9nVMmXuQbA/HZN7vw8Vff2hZ53zmiF4aOGqPKns3fbf/X12jbsQvips6wba+/z/9whyo9NktIyVZcuGwF4pNm4I3Bw9Ta/KBKnJWMDp27YcSYCYgeNxEiSCVbUbcp6w8++cIpe9GThExdtMRuf2lj5fqNSrwuWvY2unaPRErGIjsROzEhCQOGjsC7m7c67Zucmqm2lRJ2iaF56dk3CgvfXO60jy67zl6+EmHhPdQ+X3z/Iw6fPmfbf/T4OGTlvOU0fqaUps/PXGzXP3PM+LrhDzHGjrEjA2SADJABMkAGyEAgMDAIqbk7ULAiCdNX70Dh6hRnKdDYElJJAhd//Dv+8f5S7yOgspK25SL1lch4dGZVxvIr3F6ApYl9G+nvJX/IN3+06Rwr3z7rmnifE1ehoHAtZtsyE/uiX5TItmHI3FiI9WlGNqS8FxlXkJuL9QX5Rpl2bDbWr8tGrG1fF7Ecko3123dgfZZux9hmcEYe8rwpIR6dgzzh9qUluevrYCdgHZ4xEROysGarZG8ux9K1MmlNEiKs24SNy8Z6KVf3eD95X05duDbFt/dleApWyg9NiS6uicN5+pZ35+MFmISUExQRORBTvj6IjLvWsR6tGZETpn+PSR/uRsadMlum5Jyiv9B7zHxrBmQZlIBM/LcSkD26zbAJSLkQIiFvPH6mBOBHX+zE8NFjbWAMi47FW6vX2d7L9ovfWole/QZg8rSZTrJOZJ5INVcXWCRbq7YdVKm0jM0ogm7Hl19DSq0lI1AEo7Rt3leOHd6jt9pGyrFnz0/H1Nlz7bZZu/E9p0l0PEnIrds/UaLRfJwtH32i2hTBKZP0mMWmjNkoJepSpi3n0LptR9Vf6bP0bcXaXLXvVz/uVgJWttOL7CvnKGLWfDz9WsqxJQNVtldtvZtrt6+0PX7yVNu+EjdpT7bVbXDt/ABgTBgTMkAGyAAZIANkgAy8wgwMyML67dY/TGevReH2PKQOcIiHlpDjsrAmX5fsFmL9MvuS3bBRyVi60VTWu60AaxbV/pH+WpDxB7hjJpySgdYxJ0UA2Gcj+UlGqvN2FiHu7oWomfYl2yIhpptKGw1xkYzpy/JsZc0ygUeUZE2tqh3bTn1m/oNfvl+Rb9uncGselkrGmXWbiMTs2lLxwnwjG828f4NfGyX4BW/PdJbOjm2Gx6jzyt9We+3z12Xbl91aGYlPzMF6Ke2XTLOCPCzW4wcqsWx/bTUHdcVWZNf0JbmwO/6yJLzmoU0dv6a5di2/zH1Vsss8RMDWfCyfa581GKbux9phBIStTLl/TOML2gs16/2X5pnJxLcLUbg62cag7ldUWh4KcrPsM+lkTEhb5l9fRI0ej9mrCj2OQxm/ohCF5sleklYhPzcL/USSFZjlp8NzSHMZJ2NM/gMSMjYHefJMS4szxGNkEpbmyyQ2SYhKNL5T2aK6n96uhWPTNdPxdlzXr5Rb32v2cZJrK/e8Y9uN/T4AJaTAGoJ2khG580BtRuTNCizYUoLUohLbZ3NO/oXesWkYO+RftRmQSkCeghKQre1nYBYJmV/4sbpo7TuH4+Od36BHH2MmpIZKSBlTclVuHla8m2tb9hw+qiTklz/8guS0TBRdvoaJidNtsDQVCSlCcNqcFNsYlFFDRthE7K8H/8Q3P/8KEY6yfPfrPlsWpZyXSEdH2Ld9+i+IKNWxeHvdBpu8rWtMSBGUH33xlU3sLn37HSV/HY/B924e5t4+JLmdE7dkikyRATJABsgAGSADzZWB6CX5prEgk7GycAfysmPs/78jfyQXFCBvcy5SE4YhInwQopNXqfHc8rKtE3SqMeR2oCA3G/EjBiEschjiU4wx3/JzdFlz3RJSxVHJJT/JR/1/2RQpycxDpqNw1d87rOetyMPi5DgMjopAxJgUrJTJIUxZo0qebivA+kUJ6Bc5CNEpa9WEG/n5Bch/OwXRkTL2pBGz9Rl6Qg1jYovC/FWYHWuN2aI8FGzPx+IxwXhNi9KM8Up6KMm7Kts3EwQpkeOm/N7u3K19lNJTNW5fX0QlpGGlyOh802RFipFC5G82ziUiKgGZuYUmtuQZ4Vq+eY5tBKavKkThtnwsTY5DVKQcPwtrVug5EFy32bTvR899ViW923cobmKH9EVY1HgkLhEuCrEmxcqO9X7LX5uFeOs2s9/ON+SvSWi5kpAFBflYvyhJxdKZyTgl1tY4lDpHyRAJ0ifJVJy7tnZymcLayWbyN+ZizdpcrFmxHCtNY0XaX4uZavzZNQvMZczjsXizMB+hMitXJtfx74mMb7jd+fmg7kGPZdaOVZzzdgAAEopJREFU+7i6DhEqM9zrSV3Ck7BcngXb8muFu939U8e5yLZeSkj7OJraVfey47mZvjf3R557+csRa/7sH3gdoBJSgh6C0IhBmPLVH0i/9hxpeS9UiXVqpiEi5xXdQf/xS2CUYHvOgNQXXI8Jqd+H9+ytSoI7desJkZDr3nsfMoO2Xt7ZsMmWCSlSTH+uZ9mWTEjJaJSsxT5RQ2zLN7/sURJy35/HocueZUIcKVeWDD+RkNK2ub31+e83KBNSBKGULZvbkgxIOU5dmZA6i1HKtGV/EbSS+SnxEdEor83tduza3fadKwkp5d3mOPQfPBw687IuCSnHHDh8lJo4SGYrlxm+zeNI6mvGtZsH0j/w8OG14LUgA2SADJABMkAGyMA/yYA1G25Fkk06qpJsc5aS/B9RSUGrGDP9n1FlNFkzGFWWjsxu61CGqSRn4VpMV/s1HQkZmyPZiQ5/uKs/5nUGkX1GmSOn5uxN+U4JkI3ZplmIByFz4w77jK8g62drrQJNHS/fOrOw5sCIUX5OHF5TswoXYuVMs7DR273kWklY+ywpx3NU71UfRVY69GGMlMTuwMrZ1n64YkSXzcbrvrqSPvq72rVdbNVxCrFytsPxbRx616bLc7O1UXvsxtnOU58jbCzZz7gsgs7gScZg1Peb/URSIvPsuXUlIc3yXM5X3fO5WdaMWOmbPRdqAplteVi+tsCQkOGDMFh+aAgKhmRH5ptn3w6PMNqJy8bKJUno5RjjAVKK7Sz/+2XlIW+R9QcNx30c3yvWHO5dx228eu/qOhj33/o0d7yZWLFmOedvzLHPCnZz7LolqenZY5KpOmO4ls1BmJCUUDuRj7pHa+MRNmomEh3GqrTt67Ct7XM3ffbX9wEsIQWQEHTsMxJjV+5E3MifkTq5BIum/htpK19g+tIzmBpzDOmTy00l2K4zIHXwZcxFyfzT72Ut4x9OmT4b3Xu/gfe2bXdaRDRKhqDjd5LtKN+NmTjZ6Tsp1W7Zpp0az1DWchwRalNmzIGM/dj7jUFO+0j7MmHLoBGjMWRkjJKiIuXMfZWycD3DtP5cyrgd+7bsnXfV8afPXYB2YcZkPnp7+Uxez03Pss2gPTMlVbWxZMUq2/FkLEfHdmfNT1ffL1iY7VIQypiRjvukZeeofWTsST2Lt2Q9yrnoPpnX0i8ZL1JiYf6cr00PzEZ+yDD2jD0ZIANkgAyQATJABpogAzL2my7F1v8/VCXZDuOGyR/9Ihj1NnptkgHqD2wXJZyvqaylAiydIOffdCSkIVbzkGqWpiJXRhuTs2Tm2suc18JjkLhoFdbnF6JAlyVbBaywLefvWOaoYmLKStPb2UovVfxciwcjE2uYrZQ7f91yzJvgw7Eb9XWxCUI3fEofbRLZvI1JlgoPLhlxlDyO763teYqt2+PrvrhpUzPaJNee+mzE1SkbWSZ/SZMxPA3Z5O5+c2RO3tdm9VkFW5bOxDViaCd9Vbaq/X0RFp+sZoqX7WrbCsZr1mxM++ETdqA281lfI9PaFxJMmDDdew3/t8XFdQiX4SlkYhlTn50YisDw2cuxXj8HTMLQPhb2Mtexn0bJvVHeLTNtm4dGkGEYlruboV5lSJvadohpP5ml3PGHJNs5yDk7S2DHvvn7fUBLyFYduyK24FOknL+HmNQdiBvxMxbMf4aMoxakHH2IsQlfKhGZNvk5po05aZRgWyeh8XfgPY0J6e9jB2r7ImrX5uVDMiED9Rx5Xp7+QeB35IMMkAEyQAbIABkgA94xYM2scvcHtKnUWAkmF3/0eyNFDAmZj8Wj5bpYJYhDlpG9BNGZl7WZPd6dTz2vu8rS24GVya4znuxkzoBkrNxqnkF6GEQamEWIvewx+mLXhlUC2H0mMsUxG9MmC2rPJ2JCipqtu8BaDlv/2YRr27LFMtwQMHlL6vi7ya0EdJBlLsWQo+RxfC8l53XEVtp1JcBtcXLRpu07F+fdJL7z1GeHuJr6q+43qxAWjhylt1xbO76s72vFodG2Y2ad/f0nfXN975klpJ6EJX+zaYZoJSXrmBlaSb6Xk2Aqi9nF88jGtilm9f0szC3vwlJfRE83xmhVY8IuyvMwlqPE0SQKdZ/UMBXLsWZzgRrj1HYtwpOxctsO5K/KxmLJOJUxZ11OmGVMqFWwOrl2LFcHCflakJERaxsqQx9bra39Uj8K/XP3R8BKyJbtO9nNgr3g0mPELvkcKQfv1Y4Jeegqho/fhBFR+ejaeRKC2oT5RV7JxDIye7N5kQlhdHlyfW8Obm9/w0gcJbYidqXsnfGxjw/jwXiQATJABsgAGSADZIAM2DGgxxt0yIqSbXQJtW12XPnDfLtj2bBVYlpLkFVptrty7IJVMMpGjfHmaqWIXBNjdm6z0DOyFF2LELtzsPvjur7XdxDmrS1E4da1dhPM6PbNMmd4dr6dcJRt1OQdJhEi29ufl7MQkv3M7b6W5CIT1cM5hSXLxEFa6Nb3fB23j8D01YUoLDRJJFfH1tmyLsuxTRmzDZSQdcbW3fFtffUk9BzPuam899Rn6/2wMdt+Apgg6/0mE7joEmrHbLdwY7xFW6ZtgyWkC3lmLQHPXzYTiTl5KCiwciPicWs+FienYeXWAqxMrp1USd9L9usYVTLuWpB5d32UNN2cAylLt2/7Jd+HG5LW8T7Wxxgu47Xm5yIzyTpBkDDvkOmstzXGPzXHcRRkzM68jauwONkopZZngU1CSqaryk7egYK1KW7PLUqyHLflYp5pUqzXnCRkMF6TYQwKC5wnsnK1ra/j6EV7ASkhjQzIz5Bx1zQL9rEr6JewENO/OWuTkJkPLJh16CIGx65B184TEdRGZmYO8S3MQcFqlmiZpdm8yPiHLV1MzlIL7kveRF5c/EA5lsRRx1aXbAfKufE8eB+QATJABsgAGSADZIAM+JoBGYPN5UzY8jeEFpR6AhWVHVSIAtukI6MQryZQMY3VZy3NdJ6YphBrFtSKCSUQRHzJBDeSFbQoz5j12CT0jOxJadsYd87X525rT6SDTLCyLR8rl6QgXpVixyExJQdrZIZnq2BQ2VHbRbCMN/qclov8wh12YrJBElIyQ9XxTZO+TJiJzLWrME+ug4yrt0wmtRH++yJaMq8KvZg92Nu/A/X5FxZgzbIsJE4wStHjk7OxfGMeFsfJcd1PTFOwLq1WlHklIQ3JU7Aq2TaeXd2xrT3+4unj0S9cJqbJxvq39cQ0zm3arq+3cWj07QwJuT7LiPdw6xAAw63jLGoZlbciBfYT05iyDJVMMiaviZbJkoYkITO3wBgqwCTG7Ln0JhPS9cQ0ElOdCRk1IQHDbcMY9EWsSPrtxqRUE6JcZxabr0mYku8FWJrYsOEF1BiWpnM0t93g15FxxkRKMtmS7dzq+HenXhLSuS0tIeXazV4iQz3kIjVpOfJksp9NzpmQanIg20zkpvbciEUlLJWINCZSVrGRsWDNz9pGZ9/od8BJyKD2ne0yIEU0zjl2Bb3HpCF2yBeYm3QHC35+ZiciFxx/gvFTvkVE16lo1YZjCTb45v2HIGZ/TQ8hXgOf/4hAvsgXGSADZIAMkAEyEFgM1E5g4bq015qNpTOtrIJpevJaQ75JCXdBPpbPtWYEWf//GTYuCys3yYQv1nEOtzpvI2Mrzl5VgAKReFJevCoF0x1Km5X4kixFaacwF7P9+f/b8BhMX5JriFDd720FyFuVjURbOWTt2Iyqz2uzMNuhz/ayx7hf5DMtMjU/Tp9FJiFznSlm2wqwZlGSmg1b4iCx0vFUWVgNFDf6+E5rV+e/NR8r0+KsfQjGa+FxSF2VX3vtCwsggqxWRFlL6J3khnPGnyFGjGu/Zq7Eyf4cZbZnx9jq42tmCiVGC2rLyJ3bbOrPKyMu+rra1qb4Rc3MwZp86z0ggk8y8ByufdTM5VgvslzdJ8bYgqkOzNlz6Y2ENCaqcVXqrSWkCPGoCTORukzum0LINYuN7IvYlFVYX1CIgvw8LF+ShsQJo2yy2Z67CAxPyzVmj5exTtWs6/bXTN0n+n6sa22Km/1x7Nt09Z2aeXyR8aNCgZcTzNjakeeix76ZMyGtfZFxZxNSkJplvXbqx4x840eAMVYpa3ommMeCjUjMQubM2h90bP1wM1u4fB81M9lOqqoMbldj9/rzGeui7YCSkCoD8oPP7TIgZx+9jL7jMjB26E6kTy7F4qT/i/TZFVjw81M7EZl2vMQqIpOsItL3GZE2UFxcCH5X90OCMWKMyAAZIANkgAyQATJABsgAGSADZIAMODJgzL7uSiDWK1ZSAu8i41ZLyOlvFyB/Uy6Wps20Zuma+xGBfrGGoMxbl41oD95DZnHOXGHNhF6XVjvGoYd96nUedbUj5etbdyB/09raEuu69jF/35BMSBmLdVsB1q+VsuwkDPaQORoxRuKzFpnxbrJL1VAFhoQuMM9Qbu6j+XV4ClYWmoZQMH/XyK8DRkIGdeiiJqGxlWA/sGD20UvoE5uGsUO+RPrkMmQn/TcWTv1PTBtThKiBOZiy8yAy7pZDsiUz71Ug7UQxxid+h+5dk9AqONwvpdk+vXEaGRb23fyA5WvyQAbIABkgA2SADJABMkAGyAAZIANNgIEh2Vi/XcYZdCOtvHYHw5C5cQdeZtxG8tAEeHC43tFSNu801ug/08+AkJAt2rRD9KZCNxmQX6kMyOyk/7EKSGMWbCm7Dg0fgMlf7KvNiLxXgdRjxRg37mtDRKrSbGZE8iHyz9ycjDvjTgbIABkgA2SADJABMkAGyAAZIAN2DMTlYM3abKPkOWoYhidkYc3WHSisz5iGDpLKrn0907UaF5Sxt4uNp7g11e/URDV5yDRPaPMP9jUgJORrrULQKykZKZfuqaxGWwakKsGuzYBMGnMC3cOnI6hNZ+u4cSFKRCZ8ecDIiLxbgaydVUhJeIRxQ3aie/g0ZkT+g3A2+5udseP4jGSADJABMkAGyAAZIANkgAyQATLgSwZkLM9leaZxOguRvy4b8WoSI0pDeoSmzUBgSEi5oVuFoOeUWZi6+6hRgj3UPgPSJiBbd3J4AIagXZf+iP9sL2YVXsKCxGIsmvpvzJ/0CGOHfkUR6cuHJdtyYK9pPxz48Ob1IQNkgAyQATJABsgAGSADZIAMkAEyQAZ8xUDgSMigYLRo3Q6hXQeif+RSzBh7DgsT/8bCxP9AUsxxIwPSSUBqkELQtmMfRPaaj7jhPyEtvliVbs8Zfx0Der+F4LaRHB+SApECkQyQATJABsgAGSADZIAMkAEyQAbIABkgA2SggQwElIQUM/t6q/bo2HEkhr2RpyagmRJ9UGUzBrkVkLUisk1wd0R2n4sJw3dh1rjLGBm1Be3a9UeLVu0IWAMB85UtZzuaU67JAhkgA2SADJABMkAGyAAZIANkgAyQATLQ/BgIOAkpEIqIDG0/CBFdpyI0dCBeb93BS4kYgtYh3dC180S1yOsWrdp6uW/zu/i8YXnNyAAZIANkgAyQATJABsgAGSADZIAMkAEyQAYag4GAlJCNETgegzcoGSADZIAMkAEyQAbIABkgA2SADJABMkAGyAAZ8I4BSkiWGTPTkwyQATJABsgAGSADZIAMkAEyQAbIABkgA2SADPiVAUpIAuZXwPhrgHe/BjBOjBMZIANkgAyQATJABsgAGSADZIAMkAEyEMgMUEJSQlJCkgEyQAbIABkgA2SADJABMkAGyAAZIANkgAyQAb8yQAlJwPwKWCAbfJ4bf6EiA2SADJABMkAGyAAZIANkgAyQATJABsiAdwxQQlJCUkKSATJABsgAGSADZIAMkAEyQAbIABkgA2SADJABvzJACUnA/AoYfw3w7tcAxolxIgNkgAyQATJABsgAGSADZIAMkAEyQAYCmQFKSEpISkgyQAbIABkgA2SADJABMkAGyAAZIANkgAyQATLgVwYoIQmYXwELZIPPc+MvVGSADJABMkAGyAAZIANkgAyQATJABsgAGfCOAUpISkhKSDJABsgAGSADZIAMkAEyQAbIABkgA2SADJABMuBXBighCZhfAeOvAd79GsA4MU5kgAyQATJABsgAGSADZIAMkAEyQAbIQCAzQAlJCUkJSQbIABkgA2SADJABMkAGyAAZIANkgAyQATJABvzKACUkAfMrYIFs8Hlu/IWKDJABMkAGyAAZIANkgAyQATJABsgAGSAD3jFACUkJSQlJBsgAGSADZIAMkAEyQAbIABkgA2SADJABMkAG/MoAJSQB8ytg/DXAu18DGCfGiQyQATJABsgAGSADZIAMkAEyQAbIABkIZAYoISkhKSHJABkgA2SADJABMkAGyAAZIANkgAyQATJABsiAXxn4/wEwfBVdow3jKgAAAABJRU5ErkJggg==;" vertex="1" parent="NqU_pE2BggsdRJvLbwgH-1">
          <mxGeometry x="149.42000000000002" y="30" width="858.97" height="70" as="geometry" />
        </mxCell>
        <mxCell id="NqU_pE2BggsdRJvLbwgH-6" value="Category" style="swimlane;fillColor=#1A1A1A;fontColor=#FFFFFF;" vertex="1" parent="NqU_pE2BggsdRJvLbwgH-1">
          <mxGeometry x="160" y="180" width="130" height="360" as="geometry" />
        </mxCell>
        <mxCell id="NqU_pE2BggsdRJvLbwgH-7" value="&lt;font color=&quot;#000000&quot; size=&quot;1&quot;&gt;&lt;b style=&quot;font-size: 24px&quot;&gt;Games&lt;/b&gt;&lt;/font&gt;" style="text;html=1;strokeColor=none;fillColor=none;align=center;verticalAlign=middle;whiteSpace=wrap;rounded=0;fontColor=#FFFFFF;" vertex="1" parent="NqU_pE2BggsdRJvLbwgH-1">
          <mxGeometry x="560" y="120" width="60" height="30" as="geometry" />
        </mxCell>
        <mxCell id="NqU_pE2BggsdRJvLbwgH-15" value="" style="html=1;shadow=0;dashed=0;shape=mxgraph.bootstrap.rrect;rSize=5;strokeColor=#DFDFDF;html=1;whiteSpace=wrap;fillColor=#ffffff;fontColor=#000000;verticalAlign=bottom;align=left;spacing=20;spacingBottom=130;fontSize=14;" vertex="1" parent="NqU_pE2BggsdRJvLbwgH-1">
          <mxGeometry x="310" y="180" width="250" height="470" as="geometry" />
        </mxCell>
        <mxCell id="NqU_pE2BggsdRJvLbwgH-16" value="Image cap" style="html=1;shadow=0;dashed=0;shape=mxgraph.bootstrap.topButton;rSize=5;perimeter=none;whiteSpace=wrap;fillColor=#868E96;strokeColor=#DFDFDF;fontColor=#DEE2E6;resizeWidth=1;fontSize=18;" vertex="1" parent="NqU_pE2BggsdRJvLbwgH-15">
          <mxGeometry width="250" height="180" relative="1" as="geometry" />
        </mxCell>
        <mxCell id="NqU_pE2BggsdRJvLbwgH-17" value="&lt;b&gt;&lt;font style=&quot;font-size: 20px&quot;&gt;Card title&lt;/font&gt;&lt;/b&gt;&lt;br style=&quot;font-size: 14px&quot;&gt;&lt;br style=&quot;font-size: 14px&quot;&gt;キャッチコピー" style="perimeter=none;html=1;whiteSpace=wrap;fillColor=none;strokeColor=none;resizeWidth=1;verticalAlign=top;align=left;spacing=20;spacingTop=-10;fontSize=14;fontColor=#000000;" vertex="1" parent="NqU_pE2BggsdRJvLbwgH-15">
          <mxGeometry width="250" height="90" relative="1" as="geometry">
            <mxPoint y="180" as="offset" />
          </mxGeometry>
        </mxCell>
        <mxCell id="NqU_pE2BggsdRJvLbwgH-18" value="制作 2012/xx/xx&lt;br&gt;最終更新 2021/xx/xx" style="html=1;shadow=0;dashed=0;strokeColor=none;fontSize=14;fillColor=none;perimeter=none;whiteSpace=wrap;resizeWidth=1;align=right;spacing=10;fontColor=#000000;" vertex="1" parent="NqU_pE2BggsdRJvLbwgH-15">
          <mxGeometry width="250" height="50" relative="1" as="geometry">
            <mxPoint y="280" as="offset" />
          </mxGeometry>
        </mxCell>
        <mxCell id="NqU_pE2BggsdRJvLbwgH-19" value="ジャンル、タグ(1人用、怖いなど)" style="strokeColor=inherit;fillColor=inherit;gradientColor=inherit;fontColor=inherit;html=1;shadow=0;dashed=0;perimeter=none;fontSize=14;whiteSpace=wrap;resizeWidth=1;align=left;spacing=10;" vertex="1" parent="NqU_pE2BggsdRJvLbwgH-15">
          <mxGeometry width="250" height="30" relative="1" as="geometry">
            <mxPoint y="330" as="offset" />
          </mxGeometry>
        </mxCell>
        <mxCell id="NqU_pE2BggsdRJvLbwgH-20" value="作者名" style="strokeColor=inherit;fillColor=inherit;gradientColor=inherit;fontColor=inherit;html=1;shadow=0;dashed=0;shape=mxgraph.bootstrap.bottomButton;rSize=5;perimeter=none;fontSize=14;whiteSpace=wrap;resizeWidth=1;resizeHeight=0;align=left;spacing=10;" vertex="1" parent="NqU_pE2BggsdRJvLbwgH-15">
          <mxGeometry width="250" height="30" relative="1" as="geometry">
            <mxPoint y="360" as="offset" />
          </mxGeometry>
        </mxCell>
        <mxCell id="NqU_pE2BggsdRJvLbwgH-21" value="詳細を見る" style="html=1;shadow=0;dashed=0;shape=mxgraph.bootstrap.rrect;rSize=5;perimeter=none;whiteSpace=wrap;fillColor=none;strokeColor=none;fontColor=#0085FC;resizeWidth=1;fontSize=14;align=center;" vertex="1" parent="NqU_pE2BggsdRJvLbwgH-15">
          <mxGeometry y="1" width="80" height="40" relative="1" as="geometry">
            <mxPoint x="30" y="-50" as="offset" />
          </mxGeometry>
        </mxCell>
        <mxCell id="NqU_pE2BggsdRJvLbwgH-22" value="ダウンロード" style="html=1;shadow=0;dashed=0;shape=mxgraph.bootstrap.rrect;rSize=5;perimeter=none;whiteSpace=wrap;fillColor=none;strokeColor=none;fontColor=#0085FC;resizeWidth=1;fontSize=14;align=center;" vertex="1" parent="NqU_pE2BggsdRJvLbwgH-15">
          <mxGeometry y="1" width="100" height="40" relative="1" as="geometry">
            <mxPoint x="130" y="-50" as="offset" />
          </mxGeometry>
        </mxCell>
        <mxCell id="NqU_pE2BggsdRJvLbwgH-49" value="0000 DL　000 Commets" style="strokeColor=inherit;fillColor=inherit;gradientColor=inherit;fontColor=inherit;html=1;shadow=0;dashed=0;shape=mxgraph.bootstrap.bottomButton;rSize=5;perimeter=none;fontSize=14;whiteSpace=wrap;resizeWidth=1;resizeHeight=0;align=right;spacing=10;" vertex="1" parent="NqU_pE2BggsdRJvLbwgH-15">
          <mxGeometry width="250" height="30" relative="1" as="geometry">
            <mxPoint y="390" as="offset" />
          </mxGeometry>
        </mxCell>
        <mxCell id="NqU_pE2BggsdRJvLbwgH-23" value="" style="html=1;shadow=0;dashed=0;shape=mxgraph.bootstrap.rrect;rSize=5;strokeColor=#DFDFDF;html=1;whiteSpace=wrap;fillColor=#ffffff;fontColor=#000000;verticalAlign=bottom;align=left;spacing=20;spacingBottom=130;fontSize=14;" vertex="1" parent="NqU_pE2BggsdRJvLbwgH-1">
          <mxGeometry x="570" y="180" width="270" height="450" as="geometry" />
        </mxCell>
        <mxCell id="NqU_pE2BggsdRJvLbwgH-24" value="Image cap" style="html=1;shadow=0;dashed=0;shape=mxgraph.bootstrap.topButton;rSize=5;perimeter=none;whiteSpace=wrap;fillColor=#868E96;strokeColor=#DFDFDF;fontColor=#DEE2E6;resizeWidth=1;fontSize=18;" vertex="1" parent="NqU_pE2BggsdRJvLbwgH-23">
          <mxGeometry width="250" height="180" relative="1" as="geometry" />
        </mxCell>
        <mxCell id="NqU_pE2BggsdRJvLbwgH-25" value="&lt;b&gt;&lt;font style=&quot;font-size: 20px&quot;&gt;Card title&lt;/font&gt;&lt;/b&gt;&lt;br style=&quot;font-size: 14px&quot;&gt;&lt;br style=&quot;font-size: 14px&quot;&gt;キャッチコピー" style="perimeter=none;html=1;whiteSpace=wrap;fillColor=none;strokeColor=none;resizeWidth=1;verticalAlign=top;align=left;spacing=20;spacingTop=-10;fontSize=14;fontColor=#000000;" vertex="1" parent="NqU_pE2BggsdRJvLbwgH-23">
          <mxGeometry width="250" height="120" relative="1" as="geometry">
            <mxPoint y="180" as="offset" />
          </mxGeometry>
        </mxCell>
        <mxCell id="NqU_pE2BggsdRJvLbwgH-26" value="最終更新2021/xx/xx" style="html=1;shadow=0;dashed=0;strokeColor=none;fontSize=14;fillColor=none;perimeter=none;whiteSpace=wrap;resizeWidth=1;align=right;spacing=10;fontColor=#000000;" vertex="1" parent="NqU_pE2BggsdRJvLbwgH-23">
          <mxGeometry width="250" height="30" relative="1" as="geometry">
            <mxPoint y="300" as="offset" />
          </mxGeometry>
        </mxCell>
        <mxCell id="NqU_pE2BggsdRJvLbwgH-27" value="ジャンル、タグ(1人用、怖いなど)" style="strokeColor=inherit;fillColor=inherit;gradientColor=inherit;fontColor=inherit;html=1;shadow=0;dashed=0;perimeter=none;fontSize=14;whiteSpace=wrap;resizeWidth=1;align=left;spacing=10;" vertex="1" parent="NqU_pE2BggsdRJvLbwgH-23">
          <mxGeometry width="250" height="30" relative="1" as="geometry">
            <mxPoint y="330" as="offset" />
          </mxGeometry>
        </mxCell>
        <mxCell id="NqU_pE2BggsdRJvLbwgH-28" value="作者名" style="strokeColor=inherit;fillColor=inherit;gradientColor=inherit;fontColor=inherit;html=1;shadow=0;dashed=0;shape=mxgraph.bootstrap.bottomButton;rSize=5;perimeter=none;fontSize=14;whiteSpace=wrap;resizeWidth=1;resizeHeight=0;align=left;spacing=10;" vertex="1" parent="NqU_pE2BggsdRJvLbwgH-23">
          <mxGeometry width="250" height="30" relative="1" as="geometry">
            <mxPoint y="360" as="offset" />
          </mxGeometry>
        </mxCell>
        <mxCell id="NqU_pE2BggsdRJvLbwgH-29" value="詳細を見る" style="html=1;shadow=0;dashed=0;shape=mxgraph.bootstrap.rrect;rSize=5;perimeter=none;whiteSpace=wrap;fillColor=none;strokeColor=none;fontColor=#0085FC;resizeWidth=1;fontSize=14;align=center;" vertex="1" parent="NqU_pE2BggsdRJvLbwgH-23">
          <mxGeometry y="1" width="80" height="40" relative="1" as="geometry">
            <mxPoint x="30" y="-50" as="offset" />
          </mxGeometry>
        </mxCell>
        <mxCell id="NqU_pE2BggsdRJvLbwgH-30" value="ダウンロード" style="html=1;shadow=0;dashed=0;shape=mxgraph.bootstrap.rrect;rSize=5;perimeter=none;whiteSpace=wrap;fillColor=none;strokeColor=none;fontColor=#0085FC;resizeWidth=1;fontSize=14;align=center;" vertex="1" parent="NqU_pE2BggsdRJvLbwgH-23">
          <mxGeometry y="1" width="100" height="40" relative="1" as="geometry">
            <mxPoint x="125" y="-50" as="offset" />
          </mxGeometry>
        </mxCell>
        <mxCell id="NqU_pE2BggsdRJvLbwgH-50" value="&lt;span style=&quot;color: rgb(0, 0, 0); font-family: helvetica; font-size: 14px; font-style: normal; font-weight: 400; letter-spacing: normal; text-align: right; text-indent: 0px; text-transform: none; word-spacing: 0px; background-color: rgb(248, 249, 250); display: inline; float: none;&quot;&gt;0000 DL　000 Commets&lt;/span&gt;" style="text;whiteSpace=wrap;html=1;fontSize=24;fontColor=#000000;" vertex="1" parent="NqU_pE2BggsdRJvLbwgH-23">
          <mxGeometry x="90" y="140" width="180" height="50" as="geometry" />
        </mxCell>
        <mxCell id="NqU_pE2BggsdRJvLbwgH-31" value="" style="html=1;shadow=0;dashed=0;shape=mxgraph.bootstrap.rrect;rSize=5;strokeColor=#DFDFDF;html=1;whiteSpace=wrap;fillColor=#ffffff;fontColor=#000000;verticalAlign=bottom;align=left;spacing=20;spacingBottom=130;fontSize=14;" vertex="1" parent="NqU_pE2BggsdRJvLbwgH-1">
          <mxGeometry x="830" y="180" width="250" height="450" as="geometry" />
        </mxCell>
        <mxCell id="NqU_pE2BggsdRJvLbwgH-32" value="Image cap" style="html=1;shadow=0;dashed=0;shape=mxgraph.bootstrap.topButton;rSize=5;perimeter=none;whiteSpace=wrap;fillColor=#868E96;strokeColor=#DFDFDF;fontColor=#DEE2E6;resizeWidth=1;fontSize=18;" vertex="1" parent="NqU_pE2BggsdRJvLbwgH-31">
          <mxGeometry width="250" height="180" relative="1" as="geometry" />
        </mxCell>
        <mxCell id="NqU_pE2BggsdRJvLbwgH-33" value="&lt;b&gt;&lt;font style=&quot;font-size: 20px&quot;&gt;Card title&lt;/font&gt;&lt;/b&gt;&lt;br style=&quot;font-size: 14px&quot;&gt;&lt;br style=&quot;font-size: 14px&quot;&gt;キャッチコピー" style="perimeter=none;html=1;whiteSpace=wrap;fillColor=none;strokeColor=none;resizeWidth=1;verticalAlign=top;align=left;spacing=20;spacingTop=-10;fontSize=14;fontColor=#000000;" vertex="1" parent="NqU_pE2BggsdRJvLbwgH-31">
          <mxGeometry width="250" height="120" relative="1" as="geometry">
            <mxPoint y="180" as="offset" />
          </mxGeometry>
        </mxCell>
        <mxCell id="NqU_pE2BggsdRJvLbwgH-34" value="最終更新2021/xx/xx" style="html=1;shadow=0;dashed=0;strokeColor=none;fontSize=14;fillColor=none;perimeter=none;whiteSpace=wrap;resizeWidth=1;align=right;spacing=10;fontColor=#000000;" vertex="1" parent="NqU_pE2BggsdRJvLbwgH-31">
          <mxGeometry width="250" height="30" relative="1" as="geometry">
            <mxPoint y="300" as="offset" />
          </mxGeometry>
        </mxCell>
        <mxCell id="NqU_pE2BggsdRJvLbwgH-35" value="ジャンル、タグ(1人用、怖いなど)" style="strokeColor=inherit;fillColor=inherit;gradientColor=inherit;fontColor=inherit;html=1;shadow=0;dashed=0;perimeter=none;fontSize=14;whiteSpace=wrap;resizeWidth=1;align=left;spacing=10;" vertex="1" parent="NqU_pE2BggsdRJvLbwgH-31">
          <mxGeometry width="250" height="30" relative="1" as="geometry">
            <mxPoint y="330" as="offset" />
          </mxGeometry>
        </mxCell>
        <mxCell id="NqU_pE2BggsdRJvLbwgH-36" value="作者名" style="strokeColor=inherit;fillColor=inherit;gradientColor=inherit;fontColor=inherit;html=1;shadow=0;dashed=0;shape=mxgraph.bootstrap.bottomButton;rSize=5;perimeter=none;fontSize=14;whiteSpace=wrap;resizeWidth=1;resizeHeight=0;align=left;spacing=10;" vertex="1" parent="NqU_pE2BggsdRJvLbwgH-31">
          <mxGeometry width="250" height="30" relative="1" as="geometry">
            <mxPoint y="360" as="offset" />
          </mxGeometry>
        </mxCell>
        <mxCell id="NqU_pE2BggsdRJvLbwgH-37" value="詳細を見る" style="html=1;shadow=0;dashed=0;shape=mxgraph.bootstrap.rrect;rSize=5;perimeter=none;whiteSpace=wrap;fillColor=none;strokeColor=none;fontColor=#0085FC;resizeWidth=1;fontSize=14;align=center;" vertex="1" parent="NqU_pE2BggsdRJvLbwgH-31">
          <mxGeometry y="1" width="80" height="40" relative="1" as="geometry">
            <mxPoint x="30" y="-50" as="offset" />
          </mxGeometry>
        </mxCell>
        <mxCell id="NqU_pE2BggsdRJvLbwgH-38" value="ダウンロード" style="html=1;shadow=0;dashed=0;shape=mxgraph.bootstrap.rrect;rSize=5;perimeter=none;whiteSpace=wrap;fillColor=none;strokeColor=none;fontColor=#0085FC;resizeWidth=1;fontSize=14;align=center;" vertex="1" parent="NqU_pE2BggsdRJvLbwgH-31">
          <mxGeometry y="1" width="100" height="40" relative="1" as="geometry">
            <mxPoint x="125" y="-50" as="offset" />
          </mxGeometry>
        </mxCell>
        <mxCell id="NqU_pE2BggsdRJvLbwgH-51" value="&lt;span style=&quot;color: rgb(0, 0, 0); font-family: helvetica; font-size: 14px; font-style: normal; font-weight: 400; letter-spacing: normal; text-align: right; text-indent: 0px; text-transform: none; word-spacing: 0px; background-color: rgb(248, 249, 250); display: inline; float: none;&quot;&gt;0000 DL　000 Commets&lt;/span&gt;" style="text;whiteSpace=wrap;html=1;fontSize=24;fontColor=#000000;" vertex="1" parent="NqU_pE2BggsdRJvLbwgH-31">
          <mxGeometry x="90" y="440" width="180" height="50" as="geometry" />
        </mxCell>
        <mxCell id="NqU_pE2BggsdRJvLbwgH-43" value="" style="html=1;shadow=0;dashed=0;shape=mxgraph.bootstrap.rrect;rSize=5;strokeColor=#DEE2E6;html=1;whiteSpace=wrap;fillColor=#ffffff;fontColor=#0085FC;fontSize=14;align=right;" vertex="1" parent="NqU_pE2BggsdRJvLbwgH-1">
          <mxGeometry x="580" y="660" width="220" height="30" as="geometry" />
        </mxCell>
        <mxCell id="NqU_pE2BggsdRJvLbwgH-44" value="Previous" style="strokeColor=inherit;fillColor=inherit;gradientColor=inherit;html=1;shadow=0;dashed=0;shape=mxgraph.bootstrap.leftButton;rSize=5;perimeter=none;whiteSpace=wrap;resizeHeight=1;fontColor=#6C767D;fontSize=14;align=right;" vertex="1" parent="NqU_pE2BggsdRJvLbwgH-43">
          <mxGeometry width="70" height="30" relative="1" as="geometry" />
        </mxCell>
        <mxCell id="NqU_pE2BggsdRJvLbwgH-45" value="1" style="strokeColor=inherit;fillColor=inherit;gradientColor=inherit;fontColor=inherit;html=1;shadow=0;dashed=0;perimeter=none;whiteSpace=wrap;resizeHeight=1;fontSize=14;align=right;" vertex="1" parent="NqU_pE2BggsdRJvLbwgH-43">
          <mxGeometry width="30" height="30" relative="1" as="geometry">
            <mxPoint x="70" as="offset" />
          </mxGeometry>
        </mxCell>
        <mxCell id="NqU_pE2BggsdRJvLbwgH-46" value="2" style="html=1;shadow=0;dashed=0;perimeter=none;whiteSpace=wrap;resizeHeight=1;fillColor=#0085FC;strokeColor=none;fontColor=#ffffff;fontSize=14;align=right;" vertex="1" parent="NqU_pE2BggsdRJvLbwgH-43">
          <mxGeometry width="30" height="30" relative="1" as="geometry">
            <mxPoint x="100" as="offset" />
          </mxGeometry>
        </mxCell>
        <mxCell id="NqU_pE2BggsdRJvLbwgH-47" value="3" style="strokeColor=inherit;fillColor=inherit;gradientColor=inherit;fontColor=inherit;html=1;shadow=0;dashed=0;perimeter=none;whiteSpace=wrap;resizeHeight=1;fontSize=14;align=right;" vertex="1" parent="NqU_pE2BggsdRJvLbwgH-43">
          <mxGeometry width="30" height="30" relative="1" as="geometry">
            <mxPoint x="130" as="offset" />
          </mxGeometry>
        </mxCell>
        <mxCell id="NqU_pE2BggsdRJvLbwgH-48" value="Next" style="strokeColor=inherit;fillColor=inherit;gradientColor=inherit;fontColor=inherit;html=1;shadow=0;dashed=0;shape=mxgraph.bootstrap.rightButton;rSize=5;perimeter=none;whiteSpace=wrap;resizeHeight=1;fontSize=14;align=right;" vertex="1" parent="NqU_pE2BggsdRJvLbwgH-43">
          <mxGeometry x="1" width="60" height="30" relative="1" as="geometry">
            <mxPoint x="-60" as="offset" />
          </mxGeometry>
        </mxCell>
      </root>
    </mxGraphModel>
  </diagram>
</mxfile>
